<svg version="1.1" xmlns="http://www.w3.org/2000/svg" xmlns:xlink="http://www.w3.org/1999/xlink" width="398.10753" height="322.05348" viewBox="0,0,398.10753,322.05348"><g transform="translate(-58.57359,17.60002)"><g data-paper-data="{&quot;isPaintingLayer&quot;:true}" fill="#f0ff00" fill-rule="nonzero" stroke="none" stroke-width="0.5" stroke-linecap="butt" stroke-linejoin="miter" stroke-miterlimit="10" stroke-dasharray="" stroke-dashoffset="0" style="mix-blend-mode: normal"><path d="M176.36778,225.66776c-1.76777,1.76777 -3.53553,0 -3.53553,0l-1.68306,-2.27435c-0.45365,-2.41187 -1.85995,-4.54614 -2.9373,-6.75119c-1.00442,-2.05579 -1.72664,-4.39246 -3.37965,-5.97445c-0.37376,-0.45836 -1.16482,-2.19757 -2.27552,-1.45807c-0.67956,0.45245 -0.94007,1.40066 -1.64238,1.81693c-2.67297,1.58429 -6.3581,1.44504 -8.9995,2.99969c-1.98612,1.16897 -3.1522,3.37428 -4.5412,5.21326c-0.91004,1.20486 -1.78927,2.44185 -2.52784,3.7588c-0.70367,1.25473 -0.58194,3.13947 -1.78401,3.92973c-1.35982,0.89397 -3.24703,0.63817 -4.86223,0.43961c-0.6404,-0.07872 -1.02055,-1.65224 -1.50128,-1.22188c-0.68829,0.61618 -0.0631,1.85228 -0.21985,2.76269c-0.27847,1.61744 -0.67632,3.21307 -1.08275,4.80318c-1.59168,6.22726 -3.31228,11.70191 -3.29567,18.18828c0,0 0,2.5 -2.5,2.5c-2.5,0 -2.5,-2.5 -2.5,-2.5c0.01605,-6.92135 1.75308,-12.78761 3.45154,-19.42696c0.66008,-2.5803 1.5985,-9.18491 3.9502,-10.81888c1.24978,-0.86836 3.0112,0.45675 4.49872,0.77812c0.39741,0.08586 0.87806,0.75244 1.13777,0.43961c0.44319,-0.53384 -0.08821,-1.44668 0.21599,-2.07027c0.79945,-1.63885 1.92962,-3.09957 3.01916,-4.5617c0.53719,-0.72089 4.53059,-5.62455 5.9118,-6.46624c2.64584,-1.61234 6.39109,-1.41433 9.0005,-3.00031c0.91525,-0.55628 1.33182,-1.87508 2.35762,-2.18307c4.63707,-1.39225 4.88622,-0.0246 7.72448,2.54193c1.97221,2.03361 3.08558,4.76749 4.33426,7.31031c1.26938,2.58497 2.7529,5.14655 3.3488,7.96404l0.31694,-0.27435c0,0 1.76777,1.76777 0,3.53553z"/><path d="M395.60002,258.39999c-2.5,0 -2.5,-2.5 -2.5,-2.5l0.07227,-1.40325c-1.57509,-6.51666 -0.62158,-12.81479 -1.23896,-19.42723c-0.18439,-1.97494 -0.88779,-3.99853 -0.45134,-5.93345c-2.69882,2.24366 -6.50865,1.26393 -9.88197,1.26393c-4.00848,0 -8.33965,0.41548 -12.30546,-0.01873c-1.36878,-0.14987 -2.64485,-0.80489 -4.00778,-1.00097c-3.03068,-0.43601 -6.41824,0.11401 -9.07786,-1.40308c-3.2549,-1.85664 -3.41226,-7.55946 -8.27707,-7.59934c-0.6244,-0.00512 -1.10437,0.66174 -1.45764,1.17663c-1.57888,2.30123 -2.36932,5.05598 -3.67001,7.52514c-0.87317,1.65757 -4.4174,7.59322 -4.94937,7.98263c-1.14802,0.84037 -2.83654,0.22515 -4.25482,0.33772c0,0 -2.5,0 -2.5,-2.5c0,-2.5 2.5,-2.5 2.5,-2.5c0.58173,0.11257 1.31151,0.74146 1.74518,0.33772c0.91743,-0.85409 0.99811,-2.30129 1.5649,-3.41929c2.02211,-3.98862 4.87968,-13.45893 10.35808,-13.89632c4.79655,-0.38295 7.65424,2.71931 10.28431,5.91652c0.60789,0.73898 0.6134,1.99976 1.43863,2.48414c1.7153,1.00682 5.05759,0.32952 6.92214,0.59692c8.98045,1.28794 18.74711,1.78445 27.8048,0.24423c0.76942,1.54448 1.78012,2.99073 2.30825,4.63344c2.48913,7.74226 0.03903,16.17294 2.00145,24.00588l0.07227,2.59675c0,0 0,2.5 -2.5,2.5z"/><path d="M162.71804,133.66393c2.23607,1.11803 1.11803,3.3541 1.11803,3.3541l-3.23607,3.38197c-3.212,0 -8.18873,-0.92435 -11.27554,-0.10727c-1.28311,0.33964 -4.96689,3.61214 -5.54896,4.83902c-0.5891,1.24171 -0.31791,2.80684 -1,4c-0.71725,1.25467 -2.2401,1.88485 -3.04887,3.08258c-0.51593,0.76405 -0.45643,1.79386 -0.81693,2.64238c-1.15335,2.71473 -2.9339,5.14718 -3.96499,7.91066c-1.55053,4.15569 -0.21944,4.85135 -3.47052,8.78714c-0.9018,1.09172 -2.32496,1.61708 -3.48744,2.42562c0,0 -2.08013,1.38675 -3.46688,-0.69338c-1.38675,-2.08013 0.69338,-3.46688 0.69338,-3.46688c3.96432,-2.48407 3.47318,-4.62334 5.04204,-8.78724c0.34504,-0.91578 3.57145,-7.01649 4.03501,-8.08934c0.47068,-1.08931 0.53022,-2.3667 1.18307,-3.35762c0.76101,-1.1551 2.26506,-1.71629 2.95113,-2.91742c0.68166,-1.19341 0.36461,-2.78132 1,-4c1.19852,-2.29875 6.11127,-6.46146 8.45104,-7.16098c3.44289,-1.02932 9.10006,-0.10727 12.72446,-0.10727l-1.23607,-0.61803c0,0 1.11803,-2.23607 3.3541,-1.11803z"/><path d="M357.60002,154.39999c-1.7785,0 -2.29177,-1.26522 -2.43991,-1.99551c-2.54341,-0.0012 -6.11797,-0.0291 -6.5168,-0.19479c-1.52564,-0.63383 -2.34521,-2.33562 -3.62826,-3.37634c-2.56446,-2.0801 -5.25655,-3.68123 -7.34838,-6.34838c-0.62599,-0.79815 -0.78796,-1.96971 -1.58413,-2.59821c-0.76558,-0.60435 -2.0004,-0.29708 -2.79684,-0.86014c-1.46745,-1.03744 -2.7754,-2.34446 -3.8123,-3.8123c-1.58377,-2.24199 -1.21886,-4.52156 -4.20521,-5.83645c-1.22912,-0.54118 -1.19089,1.73586 -1.20045,1.92258c-0.06133,1.19833 0.02152,2.3997 0.03228,3.59954c0,0 0,2.5 -2.5,2.5c-2.5,0 -2.5,-2.5 -2.5,-2.5c0.0335,-4.56723 -0.10119,-11.09641 6.83183,-10.47788c1.63399,0.14578 5.79998,3.58522 6.79479,5.16355c0.56206,0.89174 0.44815,2.10191 1,3c1.10555,1.79919 3.74853,2.00013 5.39086,3.32756c1.08165,0.87426 1.53763,2.32338 2.41587,3.40179c1.94906,2.39329 4.3712,3.68877 6.65162,5.65162c0.89351,0.76908 1.2964,2.14043 2.37174,2.62366c0.92711,0.41661 2.02725,-0.16285 3.04329,-0.1903c1.33285,-0.03601 2.66667,0 4,0l2.5,4.5c0,0 0,2.5 -2.5,2.5z"/><path d="M435.83224,303.66776c-1.76777,-1.76777 0,-3.53553 0,-3.53553l0.26777,0.76777c0.07983,-4.26643 1.79782,-9.28853 4.6258,-12.65451c1.43159,-1.70394 4.46217,-1.65592 5.67001,-3.52514c0.33364,-0.51633 -0.25816,-1.20676 -0.29581,-1.82036c-0.14665,-2.38976 0.74375,-4.86513 0.13781,-7.18143c-0.29009,-1.10892 -1.97066,-1.67286 -1.96913,-2.81909c0.00275,-2.05899 1.32774,-3.89808 1.98073,-5.85078c1.32567,-3.96432 2.31245,-8.24891 2.86276,-12.39504c0.16671,-1.25603 0.55802,-2.5882 0.17813,-3.79695c-0.28267,-0.89944 -1.72989,-1.09671 -2,-2c-0.27172,-0.90868 -0.39681,-1.83385 -0.41355,-2.76577c-0.55933,0.18465 -1.15821,0.27549 -1.80056,0.25357c-1.92989,-0.06584 -2.3797,-3.10818 -3.07446,-4.90988c-0.65403,-1.69606 -0.59557,-3.58648 -0.89335,-5.37972c-0.02143,-13.30488 0.65435,-26.79393 -0.01022,-40.07965c-0.0812,-1.62325 -0.37002,-3.23035 -0.48823,-4.85132c-0.0955,-1.3095 0.42557,-2.75715 -0.15261,-3.93597c-0.40995,-0.83581 -1.74578,-0.73695 -2.44228,-1.35462c-1.09191,-0.96832 -2.54769,-1.90147 -2.84138,-3.33103c-0.3392,-1.6511 0.78861,-3.27794 1.14518,-4.92538c0.34409,-1.58977 0.63335,-3.19093 0.95656,-4.78508c0.47482,-2.34195 0.99417,-4.66951 1.54989,-6.98832c-4.24222,2.20092 -6.12311,-3.64191 -8.03341,-8.33065c-2.10122,-5.15736 -2.27864,-9.91398 -2.77624,-15.38763c-0.29063,-3.19693 -0.49707,-6.36624 -0.63941,-9.5324c-0.8139,2.22485 -1.67509,4.43665 -2.59807,6.63323c-0.76956,1.83147 -1.15282,3.90485 -2.38896,5.45999c-0.74204,0.93353 -2.10522,1.12997 -3.20867,1.58218c-1.93721,0.79391 -3.81166,2.28627 -5.90087,2.15112c-3.76844,-0.24377 -5.52121,-5.60931 -6.43786,-8.04803c-3.40874,-9.06884 -3.48163,-18.75812 -5.17585,-28.20461c-0.01622,-0.09044 -0.22755,-1.25499 -0.49648,-2.75539c-0.08419,0.16303 -0.17074,0.32483 -0.25977,0.48534c-0.84814,1.5292 -1.01149,4.18277 -2.73532,4.47641c-1.88223,0.32062 -3.55855,-1.7093 -4.74988,-3.20138c-0.85754,-1.07402 -0.4109,-2.75829 -1,-4c-0.79497,-1.67564 -3.09726,-2.27102 -3.95113,-3.91742c-0.31894,-0.61497 0.31479,-1.45684 0.00859,-2.07826c-0.15872,-0.32213 -0.34173,0.64128 -0.58776,0.90286c-0.69928,0.7435 -1.27237,1.7494 -2.23251,2.0957c-2.15907,0.77873 -4.54565,1.64916 -6.78761,1.15765c-4.80189,-1.05272 -3.72378,-6.08935 -4.05568,-9.20507c-0.1235,-1.15938 -0.29764,-2.38894 -0.29376,-3.58331c-2.96603,2.98384 -8.51928,8.21477 -12.58598,5.26423c-1.53606,-1.11447 -0.58084,-3.79759 -0.35689,-5.68209c0.20113,-1.69247 1.14666,-3.2129 1.60893,-4.85339c1.54728,-5.49094 2.09833,-10.88628 2.53317,-16.53913c0.60985,-7.9278 1.32052,-15.84276 1.37612,-23.79353c0.01032,-1.47534 0.09303,-2.95048 0.06688,-4.42562c-0.01276,-0.71969 0.52872,-2.04721 -0.18348,-2.15161c-0.76514,-0.11217 -0.74613,1.37418 -1.27573,1.93769c-1.10588,1.1767 -2.39588,2.16565 -3.59602,3.24604c-1.18834,1.06977 -2.47073,2.04276 -3.56942,3.20442c-2.12573,2.24755 -5.42291,8.67763 -10.25656,6.31571c-1.50234,-0.73411 -1.18567,-9.67833 -1.18567,-11.12663c0,-5 0,-10 0,-15c0,-2.62864 -0.28256,-5.02764 -0.06664,-7.33153c-2.37263,3.05227 -4.80627,5.9737 -6.92284,9.27164c-0.39442,0.61457 -5.55182,8.68355 -5.84046,8.92024c-1.64796,1.35137 -3.69586,2.71835 -5.82541,2.63482c-5.35498,-0.21004 -5.13449,-4.35018 -6.23161,-7.75189c-1.77244,-5.4956 -3.92126,-10.86916 -5.68155,-16.38055c-1.11098,-3.4784 -2.31584,-6.38329 -2.14175,-9.61301c-3.72244,3.93104 -5.86416,8.2326 -8.59628,13.01844c-0.92761,1.62489 -1.44706,3.57748 -2.81055,4.85873c-1.69035,1.5884 -3.71971,3.43013 -6.03909,3.45715c-3.46633,0.04039 -8.14844,-5.37093 -9.58959,-7.98564c-1.43839,-2.6097 -1.4491,-5.78098 -2.14028,-8.67957c-1.23336,-5.1723 -1.50509,-9.98515 -1.81602,-15.28066c-0.05777,-0.98393 -0.25399,-1.97656 -0.34648,-2.96269c-4.43047,4.89236 -8.00162,10.39125 -11.68145,15.90952c-3.14036,4.70926 -2.4536,6.20557 -8.17045,5.38271c-6.42658,-0.92502 -8.40279,-8.76337 -10.41216,-13.95201c-0.63621,-1.64285 -1.66139,-3.18671 -1.89867,-4.93239c-0.05165,-0.38002 0.00733,-0.75261 0.11301,-1.12289c-0.67795,1.3586 -1.48377,2.65295 -2.31847,3.92133c-0.049,0.07445 -5.90002,8.13095 -5.97157,8.22948c-1.34291,1.54734 -2.17211,3.77562 -4.02872,4.64202c-7.62515,3.55831 -12.28582,-6.60814 -12.4338,-12.51012c-0.8444,1.05846 -1.89633,1.93641 -2.80312,2.9427c-0.6018,0.66784 -1.14906,1.38289 -1.72458,2.07351c-4.21126,5.05351 -9.3506,13.65312 -17.30112,10.44483c-1.73657,-0.70076 -3.57471,-5.21355 -4.3792,-6.96961c-2.40927,-5.259 -5.67855,-12.47717 -5.43988,-18.68344c-2.1516,4.24659 -4.63908,8.31157 -6.76411,12.56469c-0.39355,0.78766 -3.98089,9.14503 -4.28191,9.44204c-1.83112,1.80674 -4.13264,3.97836 -6.70068,3.82842c-0.02844,-0.00166 -3.46021,-5.96698 -4.01263,-6.93505c-2.53229,-4.43765 -4.34315,-9.03825 -6.62125,-13.59094c-0.55874,-1.11663 -1.37128,-2.11714 -1.93934,-3.22354c-2.65279,7.10954 -5.32666,14.21153 -7.72852,21.4104c-1.06326,3.1868 -2.25075,6.33926 -3.63763,9.39914c-0.77474,1.70931 -1.11302,3.70904 -2.35996,5.11158c-1.52846,1.71919 -3.42034,3.47169 -5.67534,3.92641c-2.46634,0.49734 -4.31546,-0.82931 -5.65429,-2.72569c0.96749,3.91923 2.04903,7.81323 2.82887,11.76666c0.92822,4.70565 1.31598,9.43498 2.35589,14.13542c0.8269,4.95624 1.68886,9.58382 1.66793,14.61558c-0.01929,4.63895 0.72093,10.93124 -0.43734,15.42661c-0.58796,2.28195 -0.80707,5.26223 -2.82395,6.48091c-4.2763,2.5839 -8.3242,-2.78579 -10.44927,-4.88046c-3.80531,-3.75088 -5.84474,-7.53635 -8.82962,-11.88953c-3.80611,-5.55085 -7.28695,-10.47553 -10.35134,-16.50324c-1.46376,-2.87925 -3.10397,-5.67457 -4.89343,-8.36353c-0.02229,-0.0335 -0.04482,-0.06688 -0.06758,-0.10015c0.16048,3.68818 0.35972,7.52787 -0.15742,10.94955c-0.94035,6.22187 -4.2081,12.76342 -6.04207,18.80252c-0.60914,2.00528 -2.8263,10.07562 -4.30827,11.03716c-1.48472,0.96333 -3.56587,-0.35145 -5.21641,-0.99028c-4.71084,-1.82329 -6.75393,-7.00991 -9.79026,-10.60778c-0.0626,-0.07417 -1.11508,-1.03718 -2.09609,-2.08537c0.16081,0.83286 0.25975,1.68588 0.44352,2.51106c1.09107,4.8991 2.06664,9.8159 3.05092,14.7373c1.2736,6.36798 2.35156,12.74224 4.25204,18.95518c0.04697,0.15356 2.97031,9.71355 2.97132,9.75041c0.00177,0.06488 0.003,0.12972 0.0037,0.19453l0.031,-0.00443l0.70102,4.90717c0.01684,0.10579 0.02705,0.2138 0.03018,0.32358l0.25379,0.83782c4.75912,7.90085 7.74705,16.02686 7.73657,25.33621c-0.00341,3.02498 0.48135,9.87927 -2.23451,12.0608c-1.73264,1.39175 -8.04551,-2.26375 -9.37285,-2.92621c-0.88218,-0.44029 -8.08509,-4.03741 -8.28992,-4.17024c-3.68765,-2.39135 -7.00379,-6.273 -10.26446,-9.2076c-0.31262,-0.28136 -0.63884,-0.55135 -0.97256,-0.81507c0.31726,0.7947 0.64082,1.58708 0.97324,2.37631c0.71201,1.69047 1.94462,3.25203 2.12068,5.07786c0.24087,2.49789 0.58432,5.45743 -0.91041,7.47318c-0.3002,0.40484 -0.73304,0.34776 -1.22047,0.10058c1.02713,2.73144 2.05049,5.46429 3.07259,8.19762c1.88699,7.83774 3.49736,15.45089 4.46987,23.45982c0.39934,3.28869 0.60287,6.75567 -0.3354,9.93287c-0.65198,2.20775 -0.47873,5.09767 -2.29337,6.51411c-1.33647,1.04319 -3.37066,-0.42112 -5.02232,-0.80379c-1.0745,-0.24895 -2.742,-1.92163 -3.18133,-0.90993c-0.17439,0.40158 0.33405,0.81147 0.45316,1.23277c0.74398,2.63144 1.65952,5.22324 2.77257,7.72105c2.37214,5.32337 4.36602,11.12187 7.16439,16.22152c0.83572,1.52299 2.40153,2.6781 2.86806,4.3515c0.0383,0.13739 0.07261,0.2754 0.1033,0.41399l0.03577,-0.00894l0.9864,3.94561c0.05753,0.21047 0.08824,0.43201 0.08824,0.66073c0,1.38071 -1.11929,2.5 -2.5,2.5c-0.41426,0 -0.80498,-0.10076 -1.149,-0.2791l-4.2474,-2.08884c-1.54299,-0.61622 -3.12841,-1.1356 -4.62774,-1.85145c-1.04316,-0.49806 -1.84616,-1.53557 -2.97586,-1.7806c-0.64237,-0.13933 -1.42679,0.21821 -1.82838,0.73857c-0.24326,0.3152 0.15276,0.8077 0.38601,1.13037c0.82998,1.14817 1.8611,2.13695 2.76466,3.22816c2.22867,2.69151 4.11131,5.68902 5.6777,8.81273c2.97435,5.93148 7.16972,10.99128 10.33378,16.74334c0.77149,1.40252 0.93405,3.09545 1.75333,4.47061c1.43022,2.40061 4.28224,3.66568 5.941,5.91445c0.83723,1.13503 0.95532,2.71375 1.84609,3.80727c1.70466,2.09266 4.46623,3.03546 6.6258,4.65451c0,0 2,1.5 0.5,3.5c-1.5,2 -3.5,0.5 -3.5,0.5c-2.42841,-1.82205 -5.40961,-3.03089 -7.3742,-5.34549c-1.01674,-1.19789 -1.2263,-2.92457 -2.15391,-4.19273c-0.14679,-0.20067 -5.73839,-5.56723 -6.059,-6.08555c-0.91148,-1.47358 -1.12613,-3.29564 -1.96058,-4.81416c-2.33922,-4.2569 -5.73261,-8.06267 -8.13126,-12.33643c-1.60708,-2.86338 -2.61645,-6.05565 -4.39479,-8.81593c-2.09622,-3.25368 -10.04377,-8.72627 -6.59788,-13.64828c4.14959,-5.92716 9.6483,-2.12006 14.33241,0.14215c-1.36195,-1.97667 -2.21992,-4.32196 -3.24056,-6.62838c-2.39518,-5.41258 -5.3503,-10.87834 -7.28403,-16.4613c-0.61161,-1.76579 -2.18142,-7.39203 -0.6643,-9.27567c1.13441,-1.40847 3.22915,-1.8526 5.02811,-2.03822c1.31135,-0.13531 2.60557,0.55061 3.79057,1.12829c0.4629,0.22566 0.77985,1.67167 0.97768,1.19621c0.41619,-1.00025 -0.23806,-2.1704 -0.12407,-3.24776c0.13303,-1.25733 0.81944,-2.43085 0.85859,-3.69459c0.04721,-1.52376 -0.40876,-3.02147 -0.60365,-4.53345c-0.99478,-7.71786 -2.48943,-15.048 -4.28978,-22.61741c-0.96529,-2.56639 -1.92936,-5.13324 -2.88956,-7.70154l-1.93337,-3.86674c-0.18291,-0.34741 -0.28642,-0.74312 -0.28642,-1.16302c0,-1.38071 1.11929,-2.5 2.5,-2.5c0.22872,0 0.45026,0.03071 0.66073,0.08824l1.84431,0.46108c-0.27667,-0.5076 -0.7675,-1.09288 -0.95398,-1.54665c-1.95905,-4.76704 -3.96162,-9.45581 -5.75161,-14.29656l-1.86061,-2.79091c-0.27681,-0.40239 -0.43883,-0.88987 -0.43883,-1.41519c0,-1.38071 1.11929,-2.5 2.5,-2.5c0.64653,0 1.23573,0.24542 1.67954,0.64818l3.70934,3.33841c6.00494,3.75843 10.06375,10.61936 16.01907,14.44758c2.4139,1.55171 5.14439,2.54447 7.71008,3.82976c1.28001,0.64123 2.64618,1.1342 3.83867,1.92637c0.38655,0.25679 0.65874,1.59299 0.78847,1.14742c0.72213,-2.48008 -0.26217,-5.16193 -0.25585,-7.745c0.0212,-8.66778 -2.95832,-16.00927 -7.3473,-23.36701l0.00398,-0.32207l-0.11113,0.03366l-1.41066,-4.65687c-0.08062,-0.24556 -0.12423,-0.50791 -0.12423,-0.78044c0,-0.47402 0.13192,-0.91722 0.36106,-1.2949l-0.04304,-0.30129l0.29338,-0.04191c0.0289,-0.03329 0.05867,-0.06581 0.08927,-0.09753c-1.79103,-2.55629 -2.16991,-5.60418 -3.2207,-9.04717c-2.90607,-9.52197 -4.2795,-19.48012 -6.32925,-29.21671c-0.02,-0.095 -2.13692,-9.6369 -2.13594,-9.72905c0.01954,-1.8411 -0.52956,-4.69205 1.17089,-5.39807c5.37517,-2.23174 11.00275,6.52496 13.31433,9.62663c0.9119,1.22359 1.65534,2.58869 2.71804,3.68387c0.66195,0.68218 1.64367,0.96962 2.38034,1.57035c0.33017,0.26924 0.5968,1.39262 0.78359,1.00972c0.47955,-0.98304 0.08253,-2.19763 0.31705,-3.26597c0.35496,-1.61696 0.96205,-3.16808 1.44308,-4.75212c1.76355,-5.80576 4.99685,-12.16622 5.88953,-18.14224c0.68345,-4.57539 -0.03163,-9.97211 -0.03163,-14.6036v-3c0,-1.38071 1.11929,-2.5 2.5,-2.5c0.69036,0 1.31536,0.27982 1.76777,0.73223l2,2l-0.02053,0.02053c0.06297,0.0528 0.12503,0.10685 0.18612,0.16226c1.29541,1.17481 1.94912,2.90413 2.92027,4.35847c3.60334,5.39615 5.82105,11.46367 9.26831,16.90461c2.67363,4.2199 5.99221,7.9734 8.64806,12.23688c2.3482,3.76962 5.20755,6.98015 8.51887,9.97273c0.43504,0.39316 1.10622,1.36826 1.49411,0.92851c0.667,-0.75617 0.27441,-1.99965 0.33833,-3.00593c0.30716,-4.83619 0.32783,-9.7158 0.3571,-14.55943c0.02839,-4.69813 -0.80575,-9.00835 -1.57677,-13.63942c-1.0374,-4.69948 -1.4274,-9.43389 -2.35613,-14.1367c-1.13516,-5.74807 -2.87408,-11.36781 -4.01331,-17.12541l0.05444,-0.24071l-0.06717,0.00032l-0.01941,-4.09509c-0.00003,-0.00462 -0.00004,-0.00924 -0.00004,-0.01386c0,-1.38071 1.11929,-2.5 2.5,-2.5c0.69036,0 1.31536,0.27982 1.76777,0.73223l3.53553,3.53553l-0.02019,0.02019c0.06858,0.06083 0.13654,0.12245 0.20384,0.1849c1.11251,1.03227 1.48002,2.65707 2.36001,3.89354c0.2103,0.2955 0.54179,0.79689 0.8731,0.64932c3.31243,-1.47534 4.79203,-7.42971 5.9491,-10.41973c3.51477,-9.08267 6.43319,-18.44734 9.8472,-27.58111l1.04902,-4.08537c0.25811,-1.10582 1.25017,-1.92951 2.43461,-1.92951c0.95782,0 1.78983,0.53864 2.20964,1.32954l2.40396,4.32714c2.96743,4.04512 4.31386,9.15518 6.55775,13.58222c1.2551,2.47622 3.43898,4.54926 4.11179,7.24264c0.13883,0.55575 -1.00518,1.96326 -0.53772,1.63218c1.87321,-1.32669 2.08607,-4.0928 3.00074,-6.19812c2.68801,-6.18701 6.1971,-11.933 9.23537,-17.95153l0.17882,-0.15785l-0.04536,-0.0347l2.88271,-3.76871c0.45597,-0.60882 1.18312,-1.00281 2.00229,-1.00281c1.21151,0 2.22174,0.86176 2.45115,2.00574l1.07397,4.83287l-0.43985,0.09775c1.88858,5.93556 3.27503,11.98438 5.90145,17.71546c0.7132,1.55627 0.6583,3.88535 2.19293,4.644c2.83726,1.40259 4.16258,-1.59952 5.58812,-3.09911c2.56783,-2.70122 4.80518,-5.7096 7.38618,-8.38254c1.35499,-1.40327 2.45606,-3.21538 4.21421,-4.0604c1.50017,-0.72103 3.6212,-1.31949 4.98044,-0.35882c1.54576,1.0925 1.31254,3.5515 2.02059,5.30695c0.86575,2.14645 1.58783,4.36734 2.70099,6.39655c0.4749,0.86571 1.56645,2.10137 2.84686,1.14831c1.03382,-0.76951 1.47882,-2.11111 2.21823,-3.16667c1.9249,-2.65257 3.96406,-5.22572 5.77718,-7.95591c0.98458,-1.48257 1.44482,-3.38151 2.77986,-4.55841c1.77409,-1.56396 4.02722,-4.23838 6.23401,-3.38781c2.17505,0.83833 1.41811,4.44199 2.19919,6.63824c1.63383,4.594 3.57544,8.82475 5.79232,13.14652c0.49173,0.95862 1.43258,1.82849 2.48264,2.06958c0.45997,0.10561 1.05219,0.61309 1.38762,0.28111c1.97015,-1.94983 2.58431,-4.91763 4.13973,-7.21197c3.53121,-5.20875 7.22074,-10.26745 11.6615,-14.71391l2.35403,-3.30922c0.45124,-0.65154 1.20412,-1.07829 2.05667,-1.07829c1.38071,0 2.5,1.11929 2.5,2.5v4.93307c0.79653,4.80851 0.14059,9.85416 0.85391,14.67513c0.47715,3.22487 1.55211,6.33271 2.28695,9.50879c0.5043,2.17964 1.58215,4.33122 3.15136,5.92582c0.76432,0.77669 1.46425,2.00933 2.55348,2.04124c2.02331,0.05927 4.11931,-5.09198 4.48612,-5.76048c2.92817,-5.33652 5.47088,-10.11377 9.7569,-14.43523l2.35462,-3.31005c0.45124,-0.65154 1.20412,-1.07829 2.05667,-1.07829c1.24305,0 2.27422,0.90723 2.46747,2.09567l0.88663,4.87646l-0.28105,0.0511c2.42189,7.37631 4.28081,14.95857 7.02338,22.2806c0.82208,2.19476 1.0464,4.59235 1.9471,6.75604c0.18692,0.44902 0.62936,1.00664 1.1118,0.94495c2.27967,-0.2915 3.61927,-3.74999 4.4455,-5.06262c3.62973,-5.76657 7.76236,-10.82975 11.75376,-16.31297l2.60644,-3.57619c0.45308,-0.6373 1.19747,-1.05305 2.03896,-1.05305c1.38071,0 2.5,1.11929 2.5,2.5v5h-0.48937c0.71297,6.60351 0.48937,13.15165 0.48937,20c0,2.24063 0.92593,6.94894 0.03975,9.90221c0.87608,-1.20915 1.74256,-2.43454 2.76497,-3.52182c0.03886,-0.04132 7.62045,-6.88672 7.69407,-6.9359c1.74816,-1.16791 3.6131,-3.50071 5.61781,-2.86725c4.73775,1.49707 3.86389,8.23656 3.8834,11.42277c0.04941,8.07042 -0.77213,16.13347 -1.39085,24.17701c-0.45918,5.96928 -1.06719,11.69239 -2.69987,17.49032c-0.36575,1.29884 -0.68925,2.62661 -1.2055,3.87134c1.63565,-1.32584 3.32703,-2.59605 4.81923,-4.08014l1.87535,-2.81303c0.44514,-0.68925 1.2201,-1.14551 2.10163,-1.14551c1.18975,0 2.18539,0.83109 2.43804,1.9444l0.98732,3.94927l-0.38661,0.09665c0.58518,1.70146 1.00939,3.4444 1.15706,5.22196c0.13588,1.63572 -1.11014,4.95565 0.53011,4.89544c4.17705,-0.15333 5.52548,-5.69617 10.39212,-3.84378c1.37266,0.52248 1.19324,2.70012 2.00859,3.92174c1.064,1.59416 3.16279,2.38308 4.04887,4.08258c0.22789,0.4371 0.41175,0.89866 0.55715,1.37424c0.34955,-0.68081 0.70975,-1.35393 0.8899,-1.9156c0.45391,-1.41521 0.47633,-2.93376 0.70935,-4.40187l0.17132,-2.95275c0.0665,-1.32136 1.15892,-2.37227 2.49679,-2.37227c1.25484,0 2.29374,0.92451 2.47274,2.12954l0.81524,4.89143c0.5564,1.5656 0.53617,3.27958 0.81942,4.91679c0.76033,4.3949 1.83204,8.80922 2.37141,13.2374c0.61617,5.05871 0.71705,9.48157 2.13487,14.40579c1.13774,3.95149 1.2014,4.94591 2.97684,8.52579c0.17321,0.34925 0.3489,0.9967 0.72984,0.91387c1.21983,-0.26524 2.15798,-1.26312 3.29058,-1.78807c0.50504,-0.23408 1.28698,-0.01824 1.59988,-0.47862c1.68786,-2.4834 2.0948,-5.62828 3.16834,-8.4325c1.17698,-3.07441 2.37129,-6.14538 3.3944,-9.27437c0.61678,-1.8863 1.17773,-3.79607 1.719,-5.71279c-0.03518,-2.94592 -0.17543,-5.89511 0.00745,-8.83425c0.14092,-2.26471 -0.92836,-5.22142 0.73223,-6.76777c1.59431,-1.48462 4.7507,-1.24911 6.53553,0c2.15906,1.51101 0.03989,7.81535 -0.35382,9.41806c-0.62829,2.1751 -1.25873,4.34451 -1.90381,6.50635c-0.00644,0.28456 -0.01013,0.56586 -0.01013,0.84336c0,7.65038 0.20188,15.10731 0.89509,22.73259c0.2922,3.21418 0.16381,6.49212 0.85641,9.64437c0.67423,3.06864 2.71189,5.69555 3.61429,8.705c0.14492,0.48331 -0.75548,1.65907 -0.28102,1.4874c1.88828,-0.68324 1.59662,-5.78909 1.72632,-6.2326c0.10825,-0.3702 2.93349,-6.32827 3.54493,-7.62258l0.21032,-0.16442l-0.06634,-0.04975l2.98254,-3.97672c0.45492,-0.62044 1.18914,-1.02328 2.01746,-1.02328c1.38071,0 2.5,1.11929 2.5,2.5c0,0.29691 -0.05176,0.58173 -0.14675,0.84593l-1.56269,4.68806c-0.45669,3.08079 -1.93555,5.92336 -2.75161,8.929c-1.29793,4.78045 -2.47745,9.56981 -3.46348,14.42336c-0.3398,1.67258 -0.54058,3.37873 -1.01007,5.01963c-0.25121,0.878 -1.14471,1.57848 -1.13906,2.49169c0.00276,0.44595 0.79374,0.41256 1.15862,0.66897c1.20911,0.84969 2.88828,1.32788 3.55772,2.64538c0.91702,1.80476 0.59845,4.00479 0.84242,6.01441c1.78594,14.71059 0.53239,30.20678 0.50651,45.0194c0.19093,1.16144 0.52507,2.3108 0.66875,3.47623c0.9355,-2.74887 2.43826,-5.51498 3.48778,-8.0722l1.54305,-4.62916c0.31417,-1.02156 1.26534,-1.76412 2.38994,-1.76412c1.38071,0 2.5,1.11929 2.5,2.5c0,0.21553 -0.02727,0.42469 -0.07856,0.62421l-1.12886,4.81447l-0.01545,-0.00362c-0.00192,0.02952 -0.00393,0.05905 -0.00604,0.08857c-0.26654,3.72837 -2.72338,7.7681 -3.37096,11.52525c-0.15532,0.90111 -0.50079,1.88475 -0.17157,2.73783c0.33945,0.87958 1.75804,1.08877 2,2c0.53086,1.99926 0.3306,4.14014 0.17813,6.20305c-0.31516,4.26432 -1.48601,9.62419 -3.13724,13.60496c-0.49127,1.18435 -1.73597,2.1518 -1.73318,3.43399c0.00187,0.85891 1.54116,1.06171 1.74478,1.89614c0.04067,0.16665 0.20009,7.30706 0.13781,8.81857c-0.0575,1.39552 0.4058,2.97196 -0.29581,4.17964c-1.29804,2.23431 -4.6869,2.48055 -6.32999,4.47486c-1.93763,2.35181 -3.45633,6.36654 -3.3742,9.34549l-1.73223,2.76777c0,0 -1.76777,1.76777 -3.53553,0zM251.35099,-4.62949c0.14123,-0.37862 0.27159,-0.75961 0.32272,-1.14846c0.06395,-0.48639 -0.10707,0.36354 -0.32272,1.14846z"/><path d="M221.83607,35.78196c1.11803,2.23607 -1.11803,3.3541 -1.11803,3.3541l-2,1c-1.07864,0.46981 -2.41441,0.56722 -3.23592,1.40942c-0.66949,0.68635 -0.25043,1.98857 -0.82633,2.75514c-1.75036,2.32987 -6.57065,6.12423 -9.38845,7.00866c-2.53573,0.7959 -5.35437,0.52725 -7.97279,0.07198c-1.04833,-0.18227 -1.94265,-1.00998 -3.00451,-1.07838c-0.32794,-0.02112 -0.41507,0.53407 -0.49424,0.85301c-0.98878,3.98361 -0.70672,4.47757 -0.6958,8.7441c0,0 0,2.5 -2.5,2.5c-2.5,0 -2.5,-2.5 -2.5,-2.5c0.00979,-4.22279 -0.91725,-12.78026 4.80997,-14.40288c2.93938,-0.83278 7.69888,2.00872 11.0227,0.9936c1.40468,-0.429 5.70417,-3.75588 6.53395,-4.91971c0.68594,-0.96207 0.40822,-2.48863 1.25127,-3.3165c1.28974,-1.26652 3.17605,-1.72705 4.76408,-2.59058l2,-1c0,0 2.23607,-1.11803 3.3541,1.11803z"/><path d="M334.97171,78.69056c-0.79057,2.37171 -3.16228,1.58114 -3.16228,1.58114l-3.72691,-1.38494c-1.57976,-2.21801 -2.41536,-5.12584 -4.60055,-6.7507c-0.50833,-0.37798 -1.24914,0.23554 -1.88197,0.26393c-3.03894,0.13636 -9.45399,0.87039 -11.80267,-1.76784c-1.23025,-1.38192 -1.5269,-3.41816 -1.81315,-5.24607c-0.16986,-1.08467 1.43034,-2.70619 0.48138,-3.25831c-0.91623,-0.53308 -1.28483,1.87228 -2.29117,2.20534c-1.44773,0.47914 -3.04959,0.04459 -4.57438,0.06688c0,0 -2.5,0 -2.5,-2.5c0,-2.5 2.5,-2.5 2.5,-2.5c1.14187,0.02229 2.30343,0.27914 3.42562,0.06688c1.96,-0.37074 4.009,-2.83853 5.70883,-1.79466c5.6398,3.46339 0.33629,6.0593 2.66822,9.49562c0.78684,1.15948 2.7961,0.23902 4.19733,0.23216c0.62733,-0.00307 7.5677,-0.08212 8.11803,0.26393c1.93516,1.21682 4.05976,5.02002 5.39945,7.2493l2.27309,0.61506c0,0 2.37171,0.79057 1.58114,3.16228z"/></g></g></svg>