<svg version="1.1" xmlns="http://www.w3.org/2000/svg" xmlns:xlink="http://www.w3.org/1999/xlink" width="411.9999" height="336.89884" viewBox="0,0,411.9999,336.89884"><g transform="translate(-49.10011,15.65785)"><g data-paper-data="{&quot;isPaintingLayer&quot;:true}" fill="#f0ff25" fill-rule="nonzero" stroke="none" stroke-width="0.5" stroke-linecap="butt" stroke-linejoin="miter" stroke-miterlimit="10" stroke-dasharray="" stroke-dashoffset="0" style="mix-blend-mode: normal"><path d="M461.10001,286.84999l-0.73223,3.76777c-0.28402,0.28402 -0.61478,0.53492 -0.95858,0.77583c-0.01354,0.09135 -0.02732,0.18271 -0.04136,0.27409l-0.4628,0.07108c-0.84345,0.57279 -1.66779,1.15272 -1.99533,2.06794c-0.27504,0.76855 0.33825,1.64761 0.15802,2.44375c-0.34492,1.52361 -0.67082,3.19205 -1.69995,4.36731c-0.69442,0.79303 -2.25379,0.2555 -3,1c-0.70836,0.70673 -0.15189,2.18296 -0.87913,2.87024c-2.47437,2.33842 -6.27904,3.11143 -9.43862,3.82081c-2.69831,0.60582 -5.32017,1.56353 -8.04956,2.0089c-3.57707,0.58369 -7.78187,0.03228 -11.40046,0.03228c-30.68778,0 -61.37565,-0.0219 -92.06341,0.00918c-5.06436,0.02229 -9.72749,0.57242 -14.73039,0.9823c-1.59358,0.13056 -3.21162,-0.23523 -4.79669,-0.02525c-4.55989,0.60405 -8.38714,3.53241 -13.16317,4.0216c-7.88786,0.80792 -16.05273,0.38241 -23.95927,0.99563c-4.34308,0.33684 -7.68619,2.86744 -11.67301,3.93995c-0.41355,0.11125 -9.22349,0.33995 -9.51723,0.36545c-6.86174,0.59551 -13.49109,0.70385 -20.40242,0.52183c-6.34775,-1.06111 -12.87266,0.22546 -19.1182,-0.84686c-2.95337,-0.50708 -5.52112,-2.48951 -8.47341,-3.00282c-3.23553,-0.56256 -6.58971,0.30168 -9.85191,-0.07667c-4.60992,-0.53466 -8.27539,-3.23369 -12.69122,-3.92341c-4.70037,-0.73417 -9.39936,0.05902 -14.13406,-1.0278c-3.02497,-0.69436 -5.77296,-2.40765 -8.82607,-2.9654c-2.81987,-0.51514 -5.73301,0.03228 -8.59954,0.03228c-4.33333,0 -8.66667,0 -13,0c-8.31584,0 -17.04595,0.72981 -25.32865,-0.19163c-6.01569,-0.66923 -11.58044,-2.8471 -17.46704,-4.04713c-2.45409,-0.50029 -7.52313,-0.92866 -9.92102,-1.44324c-1.57112,-0.33716 -3.03911,-1.11629 -4.63004,-1.34217c-5.59065,-0.79374 -11.97293,0.02416 -17.65325,0.02416c0,0 -2.41773,0 -2.49796,-2.37762c-0.39684,-0.27983 -0.74463,-0.73536 -0.92731,-1.46608c-0.60634,-2.42536 1.81902,-3.0317 1.81902,-3.0317c0.96924,-0.13632 2.16352,0.2268 2.90772,-0.40895c0.70356,-0.60104 0.13197,-1.96209 0.71186,-2.68318c0.67707,-0.84194 2.25148,-0.7213 2.78258,-1.66216c0.49106,-0.86992 0.267,-2.08735 -0.15488,-2.99284c-1.67374,-3.59232 -6.04588,-6.01854 -7.83698,-9.6328c-0.63654,-1.28447 -1.25403,-2.66604 -1.3021,-4.09877c-0.0505,-1.50493 0.79919,-2.91144 1.01689,-4.4014c0.29875,-2.04463 -0.4702,-5.48882 -0.79249,-7.13776c-1.2473,-6.38181 -5.43375,-11.71376 -7.15937,-17.98239c-0.45589,-1.6561 0.26088,-6.67338 0.40502,-8.03616c1.03624,-0.38003 2.48598,-0.22882 3.10873,-1.14009c0.68039,-0.99563 0.0731,-2.41097 0.1408,-3.61498c0.07266,-1.29246 0.23771,-2.57957 0.28021,-3.87337c0.10484,-3.19163 -0.24556,-6.38775 -0.6025,-9.56109c-0.08885,-0.78995 0.16442,-1.67087 -0.20222,-2.37619c-0.64915,-1.24877 -1.80254,-2.16138 -2.70915,-3.23852l-1.84352,-2.05879c-0.40042,-0.4433 -0.64425,-1.03078 -0.64425,-1.67519c0,-1.38071 1.11929,-2.5 2.5,-2.5c0.52532,0 1.0128,0.16203 1.41519,0.43883l0.8194,0.54626c-0.22705,-0.62063 -0.62664,-1.34476 -0.5904,-1.90836c0.08441,-1.31288 0.74012,-2.54044 0.87074,-3.84953c0.48441,-4.85465 -0.5553,-9.87676 -0.01493,-14.72721c0.19228,-1.72591 -0.48194,-4.42573 1.12377,-5.0871c1.74436,-0.71848 7.13455,1.82926 9.58734,2.93164l0.02112,-0.14784l0.22207,0.03172c-0.78258,-4.19244 -0.66369,-9.40281 0.07896,-13.13488c0.80605,-4.05068 2.40711,-7.12477 1.97525,-11.38734c-0.57932,-5.71809 -3.01574,-10.1235 -6.52832,-14.48066l-1.83596,-2.05035c-0.40042,-0.4433 -0.64425,-1.03078 -0.64425,-1.67519c0,-1.38071 1.11929,-2.5 2.5,-2.5c0.69036,0 1.31536,0.27982 1.76777,0.73223l3.53553,3.53553l-0.30602,0.30602c0.01819,0.02498 0.03635,0.04998 0.05448,0.07499c1.34954,0.95021 2.62705,1.99072 3.78708,3.15452c0.58397,0.58587 1.30673,1.0625 1.74614,1.76334c0.00384,0.00613 0.00767,0.01245 0.0115,0.01897c-0.62548,-3.62981 0.19977,-7.05852 -0.11567,-10.82311c-0.46575,-5.55844 -1.98074,-10.60754 -1.9808,-16.26251c-0.00001,-0.61635 -0.0187,-6.26077 0.06688,-6.57438c0.39243,-1.43813 1.66664,-2.54704 2,-4c0.70261,-3.06238 -0.34119,-6.29566 -0.06688,-9.42562c0.17599,-2.00811 -0.69453,-4.8211 0.96147,-5.97051c4.20354,-2.91764 10.15775,3.2234 12.79744,5.48396c0.88661,-0.39374 2.02426,-0.44831 2.65984,-1.18121c1.16867,-1.34762 2.23251,-6.8672 2.5471,-8.18067c0.94701,-3.95396 1.64214,-8.14871 3.16245,-11.94212c0.57638,-1.43816 0.66397,-3.31662 1.90993,-4.23754c1.2027,-0.88893 2.96778,-0.5402 4.46178,-0.47189c0.47729,0.02182 1.08114,1.18551 1.23223,0.73223c0.24763,-0.7429 -0.65335,-1.45313 -0.73223,-2.23223c-0.33577,-3.31638 0,-6.66667 0,-10c0,-2.85821 -0.72221,-5.82725 0.06688,-8.57438c0.49218,-1.7135 1.69384,-3.14762 2.34109,-4.80877c1.14726,-2.94438 2.02543,-6.00531 2.64014,-9.10494c1.15927,-5.84548 1.25669,-11.9397 2.32526,-17.82624c1.79099,-1.05784 3.30494,-3.39692 5.37297,-3.17351c2.21332,0.23911 3.49362,2.77002 5.10551,4.30553c4.29632,4.09274 7.36881,8.60713 12.14814,12.18231c2.52161,1.88629 4.76401,4.19499 7.52042,5.71773c0.9265,0.51184 2.06255,1.30731 3.04285,0.90806c1.0968,-0.4467 1.34417,-1.95095 1.97647,-2.9523c2.58592,-4.09528 4.41373,-7.85529 6.37506,-12.23295c0.7151,-1.59609 0.90041,-3.79329 2.42295,-4.65395c1.25367,-0.70867 2.89558,1.44497 4.22658,0.89511c1.09743,-0.45337 0.89633,-2.20469 1.46567,-3.24669c0.64113,-1.17336 1.66382,-2.13928 2.15643,-3.38232c1.1178,-2.82063 0.90939,-6.04192 1.95765,-8.88914c1.06178,-2.88395 3.1457,-5.3837 5.39921,-7.47325c5.31837,-0.25579 10.63217,-0.19998 15.95671,-0.1903c3.73972,0.0068 6.73187,-0.41716 10.23175,1.3245c1.96394,0.97732 2.38441,4.26154 4.51367,4.78922c1.24576,0.30873 2.47178,-0.69883 3.72672,-0.96782c4.12304,-0.88376 7.62042,-1.84363 11.37126,-3.86226c2.60342,-1.40111 6.98163,-5.2552 10.57971,-2.83906c1.6065,1.07878 1.64679,3.54691 2.00225,5.44909c0.14261,0.76313 -1.30901,2.47017 -0.56158,2.2603c1.00466,-0.28208 1.01728,-1.85328 1.75179,-2.59449c0.79683,-0.8041 1.89698,-1.24454 2.76849,-1.96703c1.24871,-1.03519 4.14522,-4.76476 5.61594,-4.59245c2.00457,0.23485 3.17851,2.48816 4.76777,3.73223c0.24497,0.43961 0.23434,1.37088 0.7349,1.31882c1.20922,-0.12575 2.10488,-1.22522 3.21124,-1.7292c1.41176,-0.6431 2.98325,-0.9361 4.33001,-1.70608c6.74134,-3.85426 11.9508,-10.25329 18.98601,-13.8039c1.49286,-0.75344 3.20715,-2.40645 4.72112,-1.69639c2.01633,0.94566 2.76524,3.55757 3.62641,5.61141c0.67086,1.59995 0.48222,3.44093 0.87754,5.13019c0.74173,3.16947 2.70734,5.93751 3.69606,9.03881c0.17605,0.5522 -0.84453,1.46101 -0.32065,1.70891c1.38157,0.65377 6.29216,-2.34188 6.6578,-2.54276c3.4805,-1.9122 8.53889,-6.39844 13.02612,-3.68867c1.68409,1.017 2.09333,3.33941 2.96627,5.10249c0.72026,1.45471 1.20026,3.0165 1.80039,4.52475c0.84545,1.36385 3.36888,5.52526 5.74179,5.00568c4.96218,-1.08654 8.04341,-9.54343 14.04833,-3.16429c2.986,3.17208 0.4027,5.70671 1.47198,8.78626c0.07652,0.22038 2.2727,3.80094 3.08253,3.43862c0.98111,-0.43895 0.86583,-1.97753 1.44776,-2.88121c1.14768,-1.78223 1.61865,-4.92563 3.72617,-5.15339c2.29123,-0.24761 4.01343,2.41561 5.52708,4.15339c0.85221,0.97839 0.95823,2.41819 1.28962,3.67266c0.83752,3.17037 1.10793,6.47088 1.91409,9.64936c0.24919,0.98248 0.32069,2.11707 0.99585,2.87306c0.73199,0.81963 1.90751,-1.21755 2.51154,-2.13557c1.17783,-1.7901 1.62755,-5.02153 3.76182,-5.2129c2.37029,-0.21253 3.76416,2.91289 5.64624,4.36934c0.28503,1.91656 0.58733,3.83063 0.85508,5.74968c0.12971,0.92964 0.25906,1.86029 0.3372,2.79568c0.04232,0.5066 -0.32942,1.15922 0.02371,1.52491c0.30443,0.31526 1.02712,0.19028 1.30648,-0.14739c0.85989,-1.03938 1.0212,-2.52527 1.80997,-3.6196c0.97306,-1.35 2.27311,-2.4307 3.41501,-3.64165l1.89155,-2.89649c0.44284,-0.70111 1.22465,-1.16677 2.11521,-1.16677c1.22888,0 2.25067,0.88665 2.46053,2.05512l0.9715,4.85749l-0.02422,0.00484c0.02091,0.07892 0.04107,0.15808 0.06044,0.2375c1.12769,4.62322 -0.50132,10.23515 0.01682,14.97634c0.33736,3.08695 1.63962,6.01439 2.0003,9.09871c0.08982,0.76808 -0.04221,1.55158 -0.17568,2.31329c-0.03175,0.18118 -0.45669,0.56728 -0.3097,0.45671c0.8145,-0.61272 1.43552,-2.46312 2.33183,-1.97788c0.51979,0.2814 5.45911,6.6601 6.03988,8.68731c0.75583,2.6383 0.27122,5.53428 1.04906,8.16617c0.45684,1.54577 1.50495,2.90123 1.81043,4.48388c0.1775,0.91957 -1.24236,2.35366 -0.40838,2.7798c0.79076,0.40406 0.87341,-1.54649 1.32068,-2.31364c0.87665,-1.50361 4.49284,-8.8042 7.36327,-7.77375c2.3814,0.85489 2.75975,4.30983 3.52951,6.72009c0.54546,1.70794 0.22079,3.57905 0.33119,5.36857c0.0305,1.68643 0.22635,3.37799 0.09151,5.05929c-0.06979,0.87025 -1.28108,1.87264 -0.69969,2.52394c0.61843,0.6928 2.18518,-0.90813 2.77923,-0.19432c3.8395,4.61352 1.00997,11.23865 0.13523,16.23993c-1.04227,5.95911 -2.18048,11.68337 -2.17376,17.73058c0.00111,1 0.16629,2.01392 0,3c-0.12641,0.7496 -1.50527,1.7063 -0.862,2.11137c0.74921,0.47178 1.64485,-0.67736 2.39667,-1.14498c1.25211,-0.77879 2.38785,-1.73085 3.59301,-2.58049c3.48547,-2.45727 6.20472,-5.75927 9.62446,-8.17335c1.40946,-0.99498 2.98313,-3.47642 4.47232,-2.60528c2.10732,1.23273 1.98812,4.47236 2.70757,6.80534c0.53098,1.72182 0.96546,3.50616 1.02764,5.30692c0.06218,1.80076 -0.43942,3.57678 -0.65913,5.36516c-0.75798,5.87249 -1.07488,11.65648 -1.20694,17.47554c0.34959,-0.81074 0.65983,-1.53792 0.88862,-2.12638c3.2334,-8.3163 6.42988,-16.64161 10.01778,-24.81364v-2.62022c0,-1.38071 1.11929,-2.5 2.5,-2.5c0.99801,0 1.85943,0.58479 2.26029,1.43041l2.21185,4.42369c0.87172,1.23573 1.57958,2.55604 1.93897,3.98515c0.44611,1.77393 0.30012,3.64602 0.43878,5.46992c0.61457,8.08378 0.65012,16.08607 0.65012,24.19082c0,2.91789 -0.33347,5.85351 -0.01217,8.75366c0.67267,6.07154 2.29133,12.44635 4.1708,18.27253c0.26648,-0.78456 0.58212,-1.56686 0.78711,-2.32892c1.24448,-4.62631 1.47036,-9.85859 2.22031,-14.59318l0.43719,-0.36858l-0.18337,-0.12224l1.97849,-2.96774c0.44514,-0.68925 1.2201,-1.14551 2.10163,-1.14551c1.38071,0 2.5,1.11929 2.5,2.5c0,0.15625 -0.01433,0.30915 -0.04176,0.45746l-0.81425,4.88551c-0.06305,6.43138 -3.26658,13.50501 -5.02481,19.62837c-2.59313,9.03109 -5.96347,17.8583 -9.5189,26.62641c2.20447,-3.74359 4.50819,-7.42916 6.89659,-11.06095l1.89259,-2.87739c0.44366,-0.69701 1.2231,-1.1594 2.11054,-1.1594c1.22888,0 2.25067,0.88665 2.46053,2.05512l0.9715,4.85749l-0.02416,0.00483c0.0209,0.07898 0.04104,0.15821 0.0604,0.2377c0.01567,0.06435 0.02365,10.02405 0.02366,10.24491c0.00044,8.33834 -1.79972,17.13131 -3.7897,25.24844c-1.46932,5.99337 -3.70672,11.67934 -5.08846,17.64088c0.79679,-1.22982 1.65655,-2.43245 2.38745,-3.65055c3.09847,-5.16385 6.01074,-10.42803 9.0078,-15.65079l0.3023,-0.17671l-0.0791,-0.0791l2,-2c0.45241,-0.45241 1.07741,-0.73223 1.76777,-0.73223c1.31881,0 2.39911,1.02118 2.49333,2.31595l0.41326,4.95916l-0.46974,0.03915c1.04441,6.62076 1.02301,13.12623 1.06271,20.13609c0.02073,3.6609 0.08359,7.26914 -0.07725,10.87528c1.07763,0.69788 1.07763,2.12445 1.07763,2.12445z"/></g></g></svg>