<svg version="1.1" xmlns="http://www.w3.org/2000/svg" xmlns:xlink="http://www.w3.org/1999/xlink" width="371.16602" height="149.0078" viewBox="0,0,371.16602,149.0078"><g transform="translate(-69.10001,-152.39998)"><g data-paper-data="{&quot;isPaintingLayer&quot;:true}" fill="#f0ff00" fill-rule="nonzero" stroke="none" stroke-width="0.5" stroke-linecap="butt" stroke-linejoin="miter" stroke-miterlimit="10" stroke-dasharray="" stroke-dashoffset="0" style="mix-blend-mode: normal"><path d="M179.68013,162.51324c1.38675,2.08013 -0.69338,3.46688 -0.69338,3.46688l-2.80178,1.85323c-0.87609,0.79211 -1.50884,1.9997 -2.62826,2.37634c-5.43019,1.82707 -7.79527,-2.59124 -11.74728,-4.93799c-1.54557,-0.91778 -1.99277,1.2201 -2.8951,1.75492c-0.51782,0.30691 -6.27163,2.13346 -6.91387,2.34109c-2.03649,0.01933 -6.16248,-0.71198 -8.02774,0.6217c-1.89217,1.35291 -3.8604,6.29489 -5.14097,7.08609c-2.69469,1.6649 -9.23428,0.12555 -12.02232,-0.80379c-0.17997,-0.05999 -3.45605,-1.42776 -4.25272,-1.06201c-0.56993,0.26165 -0.7638,0.99705 -1.18894,1.45807c-1.59788,1.73273 -3.26085,3.40912 -5,5c-1.02306,0.93583 -1.82606,2.43546 -3.19338,2.66536c-2.5118,0.42231 -4.71956,-1.97148 -6.88871,-3.3065c-0.88776,-0.54637 -2.63637,-0.98772 -4.31236,-1.55684c1.25122,6.14043 1.87395,12.49071 1.10796,18.73567c-0.16732,1.36415 -0.82614,2.63667 -1,4c-0.83818,6.57254 0.7093,13.44563 -0.01345,20.04388c-0.18126,1.6548 -0.81401,3.2406 -0.97999,4.89701c-0.45792,4.5698 -0.25151,8.41337 -1,13c-0.29893,1.83183 0.55578,4.1734 -0.72007,5.52142c-1.19502,1.26262 -3.43139,0.77533 -5.16822,0.69995c-1.15455,-0.05011 -2.18662,-0.75247 -3.29851,-1.06742c-3.69087,-1.04546 -7.15972,-1.9143 -10.66303,-3.51167c2.34955,3.02926 -0.14684,8.48253 -0.138,12.11137c0.00252,1.03483 0.00457,9.10058 -0.03228,9.40046c-0.12856,1.04622 -0.84707,1.95706 -1,3c-0.63097,4.303 0.03228,9.22574 0.03228,13.59954c0,2.19987 -0.35145,4.42295 -0.03228,6.59954c0.49766,3.39388 2.34546,7.83121 0.84198,11.35716c-1.8851,4.42091 -4.53212,3.39826 -8.3097,3.54329c0,0 -2.5,0 -2.5,-2.5c0,-2.5 2.5,-2.5 2.5,-2.5c1.01443,0.06343 2.03458,0.31514 3.04329,0.1903c1.2301,-0.15224 0.49141,-2.4513 0.45671,-3.6903c-0.09917,-3.54148 -0.98405,-6.34237 -1,-10c-0.0245,-5.61733 -0.74067,-11.85916 0.03228,-17.40046c0.14562,-1.04398 0.86685,-1.95435 1,-3c0.53824,-4.22683 -0.53348,-8.66612 -0.01355,-12.905c0.46454,-3.7873 1.17602,-7.79901 1.84326,-11.58318c3.80522,0.08466 7.66066,0.44275 11.32164,1.48392c1.32706,0.37741 2.68967,0.62212 4.01533,1.00441c0.91534,0.26397 1.83669,0.53301 2.70149,0.93258c0.32895,0.15199 0.80906,1.06161 0.83178,0.69995c0.05393,-0.85866 -0.75047,-1.61876 -0.72007,-2.47858c0.05899,-1.66822 0.77061,-3.25479 0.98137,-4.9107c0.34044,-2.67486 -0.24407,-5.40569 0.01863,-8.0893c0.16257,-1.66069 0.79418,-3.25068 0.98117,-4.9088c0.74788,-6.63176 -0.78724,-13.52511 0.02539,-20.15032c0.16732,-1.36415 0.82614,-2.63667 1,-4c0.89918,-7.05086 -0.25126,-14.28925 -1.94433,-21.08916l-0.99976,-3.99904l1.12206,-0.28052l0.07155,-2.50132c0.76484,0.3836 1.5681,0.70594 2.35859,1.04866l0.64093,-0.64093l2,2l-0.03422,0.03422c0.0673,0.04842 0.13391,0.09792 0.1998,0.14858c0.80417,0.61824 0.80478,1.94896 1.58413,2.59821c1.55919,1.29889 4.04712,0.83222 5.79684,1.86014c1.18274,0.69483 1.81032,3.12841 3.11129,2.6935c0.493,-0.16481 0.46361,-0.94406 0.80662,-1.33464c1.39469,-1.58815 5.72799,-6.75733 7.81106,-7.54193c4.00274,-1.50766 8.91853,1.58986 12.95671,1.8097c0.9277,0.0505 2.01331,0.866 2.76825,0.3245c1.08808,-0.78045 1.02192,-2.49979 1.79186,-3.59534c0.86611,-1.23239 1.81417,-2.48255 3.06717,-3.31858c2.98382,-1.99088 6.64375,-1.41964 9.97226,-1.3783c1.68506,-0.58366 3.56225,-0.7327 5.08613,-1.65891c0.91525,-0.55628 1.33635,-1.86036 2.35762,-2.18307c1.50902,-0.47683 3.25251,-0.58178 4.74728,-0.06201c0.20894,0.07265 6.66527,5.97099 8.25272,5.06201c0.61485,-0.35207 0.91449,-1.08244 1.37174,-1.62366l3.19822,-2.14677c0,0 2.08013,-1.38675 3.46688,0.69338z"/><path d="M429.83224,297.66776c-1.76777,-1.76777 0,-3.53553 0,-3.53553l0.39606,-0.0228c1.41334,-4.23155 2.26252,-8.22145 2.89044,-12.51489c0.35576,-2.43252 1.60192,-4.67131 2.01355,-7.095c0.31253,-1.8402 -0.03228,-3.733 -0.03228,-5.59954c0,-5.2758 -0.19247,-10.53282 -0.28043,-15.80088c-0.01844,-1.10436 0.97595,-2.58579 0.14242,-3.31048c-0.92672,-0.80572 -2.68884,0.96797 -3.67632,0.23799c-1.38036,-1.0204 -3.78083,-6.54875 -4.15339,-8.72617c-0.65456,-3.82559 -0.03228,-8.55137 -0.03228,-12.40046c0,-6.33333 0,-12.66667 0,-19c0,-2.51766 0.82795,-5.04587 0.47189,-7.53822c-0.04585,-0.32096 -0.65737,-0.04046 -0.97189,0.03822c-0.58154,0.14548 -1.20735,0.2653 -1.68567,0.62663c-1.23057,0.92957 -1.89899,2.68227 -3.35762,3.18307c-1.86432,0.64009 -3.94228,0 -5.91342,0c-1.05664,-0.99846 -2.37516,-1.77809 -3.16992,-2.99537c-2.40429,-3.6825 -0.68741,-7.53828 -1.59891,-11.48264c-0.75008,-3.24583 -3.17623,-6.04783 -3.72936,-9.35892c-0.15329,-0.91759 0.9349,-1.8083 0.68712,-2.705c-0.12725,-0.46053 -0.76144,0.65078 -1.23223,0.73223c-0.98536,0.17048 -2,0 -3,0c-2.33333,0 -4.66951,0.11516 -7,0c-1.82287,-0.09008 -3.93658,0.54491 -5.4553,-0.46724c-1.37542,-0.91666 -1.38642,-3.00159 -2.03245,-4.523c-1.19741,-2.81991 -2.58779,-5.55644 -3.74831,-8.39172c-0.37368,-0.91294 0.06084,-2.38069 -0.80857,-2.84675c-0.76889,-0.41218 -1.52287,0.87378 -2.34902,1.15407c-3.70563,1.25724 -11.55642,3.76632 -15.14487,1.54516c-1.42099,-0.87956 -1.09131,-3.15918 -1.63697,-4.73877c-2.89159,-2.806 -5.8029,-1.57067 -9.37449,-0.77293c-3.25172,0.72629 -7.73434,2.66263 -11.04956,3.0089c-1.52095,0.15886 -3.2286,0.45199 -4.5801,-0.26353c-1.33973,-0.70929 -1.77601,-2.46074 -2.75371,-3.61921c-0.55512,-0.65776 -1.34957,-1.10605 -1.83441,-1.81721c-0.2434,-0.35701 0.13364,-1.42473 -0.26904,-1.26804c-0.57596,0.22413 -0.29308,1.30706 -0.78675,1.67888c-2.69543,2.03015 -5.98111,3.14059 -8.83957,4.93392c-2.51308,1.57664 -4.53904,3.96821 -7.26244,5.14482c-1.79197,0.7742 -3.81683,1.47622 -5.74176,1.15194c-1.33884,-0.22554 -2.06696,-1.76101 -3.10043,-2.64152c0,0 -1.76777,-1.76777 0,-3.53553c1.76777,-1.76777 3.53553,0 3.53553,0c1.9604,2.96049 4.72944,-0.78943 6.7883,-2.27308c3.72459,-2.684 7.81886,-4.53185 11.73227,-6.86206c1.30603,-0.77767 2.22868,-2.62428 3.74846,-2.59682c0.86951,0.01571 5.09785,3.84645 5.89655,4.91476c0.53636,0.71742 0.54481,1.82373 1.24629,2.38079c0.37698,0.29936 0.95753,-0.12957 1.4199,-0.26353c2.04009,-0.59106 3.67563,-1.42475 5.75879,-1.94853c5.07844,-1.27689 11.99918,-3.80954 16.956,-0.71038c1.15039,0.71926 1.90745,1.92992 2.86117,2.89488c0.12101,1.08708 -0.49876,2.58766 0.36303,3.26123c0.83965,0.65627 2.11354,-0.28951 3.15601,-0.51076c1.76841,-0.3753 5.98793,-1.61679 7.69912,-1.94409c1.87074,-0.35781 3.93868,-1.68002 5.65098,-0.84593c1.81644,0.88482 2.19589,3.39505 3.19143,5.15325c1.26594,2.23575 3.22692,6.51831 3.96559,8.89304c0.21849,0.70242 -0.37256,1.80622 0.25364,2.19224c0.73414,0.45255 1.68447,-0.40583 2.5447,-0.46724c3.08189,-0.22002 6.89807,-0.2924 10,0c1.60079,0.1509 3.68883,-0.45991 4.76777,0.73223c1.19429,1.3196 0.24862,3.57006 0.68712,5.295c0.81513,3.20649 2.96518,5.98442 3.69846,9.21061c0.84913,3.73588 -0.78793,7.81628 1.80336,10.95246c0.69553,0 1.48904,0.35594 2.08658,0c1.10607,-0.65886 1.53956,-2.15266 2.64238,-2.81693c2.39236,-1.44101 7.28381,-2.51665 9.34243,0.66485c0.56901,0.87938 0.47189,8.56957 0.47189,10.46178c0,6.33333 0,12.66667 0,19c0,3.59032 -0.60649,8.02305 -0.03228,11.59954c0.13658,0.85068 0.55725,1.63058 0.84198,2.44375c0.33082,0.94479 0.13713,2.33057 1.00463,2.83008c1.25086,0.72025 3.38168,-0.85566 4.32368,0.23799c1.47283,1.70994 1.20444,4.35987 1.55663,6.58901c0.83599,5.2912 0.30536,10.9481 0.30536,16.29962c0,0.47601 0.00949,6.14598 -0.03228,6.40046c-0.38797,2.36339 -1.65634,4.53284 -1.98645,6.905c-0.64509,4.63558 -1.59952,8.94643 -3.10956,13.48511l-1.60394,1.9772c0,0 -1.76777,1.76777 -3.53553,0z"/><path d="M176.36777,225.66776c-1.76777,1.76777 -3.53553,0 -3.53553,0l-1.68306,-2.27435c-0.45365,-2.41187 -1.85995,-4.54614 -2.9373,-6.75119c-1.00442,-2.05579 -1.72664,-4.39246 -3.37965,-5.97445c-0.37376,-0.45836 -1.16482,-2.19757 -2.27552,-1.45807c-0.67956,0.45245 -0.94007,1.40066 -1.64238,1.81693c-2.67297,1.58429 -6.3581,1.44504 -8.9995,2.99969c-1.98612,1.16897 -3.1522,3.37428 -4.5412,5.21326c-0.91004,1.20486 -1.78927,2.44185 -2.52784,3.7588c-0.70367,1.25473 -0.58194,3.13947 -1.78401,3.92973c-1.35982,0.89397 -3.24703,0.63817 -4.86223,0.43961c-0.6404,-0.07872 -1.02055,-1.65224 -1.50128,-1.22188c-0.68829,0.61618 -0.0631,1.85228 -0.21985,2.76269c-0.27847,1.61744 -0.67632,3.21307 -1.08275,4.80318c-1.59168,6.22726 -3.31228,11.70191 -3.29567,18.18828c0,0 0,2.5 -2.5,2.5c-2.5,0 -2.5,-2.5 -2.5,-2.5c0.01605,-6.92135 1.75308,-12.78761 3.45154,-19.42696c0.66008,-2.5803 1.5985,-9.18491 3.9502,-10.81888c1.24978,-0.86836 3.0112,0.45675 4.49872,0.77812c0.39741,0.08586 0.87806,0.75244 1.13777,0.43961c0.44319,-0.53384 -0.08821,-1.44668 0.21599,-2.07027c0.79945,-1.63885 1.92962,-3.09957 3.01916,-4.5617c0.53719,-0.72089 4.53059,-5.62455 5.9118,-6.46624c2.64584,-1.61234 6.39109,-1.41433 9.0005,-3.00031c0.91525,-0.55628 1.33182,-1.87508 2.35762,-2.18307c4.63707,-1.39225 4.88622,-0.0246 7.72448,2.54193c1.97221,2.03361 3.08558,4.76749 4.33426,7.31031c1.26938,2.58497 2.7529,5.14655 3.3488,7.96404l0.31694,-0.27435c0,0 1.76777,1.76777 0,3.53553z"/><path d="M395.60001,258.39999c-2.5,0 -2.5,-2.5 -2.5,-2.5l0.07227,-1.40325c-1.57509,-6.51666 -0.62158,-12.81479 -1.23896,-19.42723c-0.18439,-1.97494 -0.88779,-3.99853 -0.45134,-5.93345c-2.69882,2.24366 -6.50865,1.26393 -9.88197,1.26393c-4.00848,0 -8.33965,0.41548 -12.30546,-0.01873c-1.36878,-0.14987 -2.64485,-0.80489 -4.00778,-1.00097c-3.03068,-0.43601 -6.41824,0.11401 -9.07786,-1.40308c-3.2549,-1.85664 -3.41226,-7.55946 -8.27707,-7.59934c-0.6244,-0.00512 -1.10437,0.66174 -1.45764,1.17663c-1.57888,2.30123 -2.36932,5.05598 -3.67001,7.52514c-0.87317,1.65757 -4.4174,7.59322 -4.94937,7.98263c-1.14802,0.84037 -2.83654,0.22515 -4.25482,0.33772c0,0 -2.5,0 -2.5,-2.5c0,-2.5 2.5,-2.5 2.5,-2.5c0.58173,0.11257 1.31151,0.74146 1.74518,0.33772c0.91743,-0.85409 0.99811,-2.30129 1.5649,-3.41929c2.02211,-3.98862 4.87968,-13.45893 10.35808,-13.89632c4.79655,-0.38295 7.65424,2.71931 10.28431,5.91652c0.60789,0.73898 0.6134,1.99976 1.43863,2.48414c1.7153,1.00682 5.05759,0.32952 6.92214,0.59692c8.98045,1.28794 18.74711,1.78445 27.8048,0.24423c0.76942,1.54448 1.78012,2.99073 2.30825,4.63344c2.48913,7.74226 0.03903,16.17294 2.00145,24.00588l0.07227,2.59675c0,0 0,2.5 -2.5,2.5z"/></g></g></svg>