<svg version="1.1" xmlns="http://www.w3.org/2000/svg" xmlns:xlink="http://www.w3.org/1999/xlink" width="371.16602" height="154.14585" viewBox="0,0,371.16602,154.14585"><g transform="translate(-69.10001,-152.39998)"><g data-paper-data="{&quot;isPaintingLayer&quot;:true}" fill="#f0ff25" fill-rule="nonzero" stroke="none" stroke-width="0.5" stroke-linecap="butt" stroke-linejoin="miter" stroke-miterlimit="10" stroke-dasharray="" stroke-dashoffset="0" style="mix-blend-mode: normal"><path d="M435.68013,293.46324c1.38675,2.08013 -0.69338,3.46688 -0.69338,3.46688l-3.28837,2.16566c-0.45311,0.15423 -6.25677,2.14863 -6.69792,2.22193c-1.97295,0.32782 -4.02743,-0.33008 -6,0c-2.07928,0.34793 -3.91358,1.69783 -6,2c-5.50974,0.79796 -11.82656,0.03228 -17.40046,0.03228c-5.94306,0 -12.44597,0.80911 -18.30546,-0.01873c-4.05486,-0.57288 -7.94343,-2.4923 -12,-3c-5.0391,-0.63067 -10.59471,0.01873 -15.69454,0.01873c-11.66667,0 -23.33333,0 -35,0c-4.32103,0 -9.15349,0.38935 -13.44984,-0.05194c-4.42231,-0.45423 -8.64702,-2.24444 -12.95062,-2.98034c-3.2805,-0.56095 -7.27411,0.03228 -10.59954,0.03228c-5.55178,0 -11.28805,-0.37991 -16.81813,0.16548c-2.41571,0.23824 -4.96288,0.67636 -7.22516,1.64422c-1.49238,0.63847 -2.80845,1.72623 -4.38233,2.12342c-1.34435,0.33927 -2.78907,-0.1791 -4.15938,0.03219c-1.19517,0.18429 -7.64017,3.07136 -7.7789,3.11148c-3.75143,1.08496 -5.18542,0.91404 -8.63611,0.92321c-2.5332,0 -5.08663,-0.35227 -7.59954,-0.03228c-1.04565,0.13315 -1.95936,0.83216 -3,1c-2.43537,0.39278 -4.93361,0.03228 -7.40046,0.03228c-5.66667,0 -11.33333,0 -17,0c-3.85489,0 -8.46055,0.45288 -12.30546,-0.01873c-1.36415,-0.16732 -2.63667,-0.82614 -4,-1c-5.23852,-0.66806 -10.76297,0.73989 -15.99862,0.00017c-4.02969,-0.56934 -7.56497,-1.99969 -11.69593,-1.98144c-9.33333,0 -18.66667,0 -28,0c-5.33242,0 -11.04007,0.54938 -16.34934,-0.03218c-1.6548,-0.18126 -3.24263,-0.7949 -4.89701,-0.97999c-4.00106,-0.44763 -8.15053,0.47186 -12.15411,-0.02011c-1.04622,-0.12856 -1.95706,-0.84707 -3,-1c-2.83621,-0.41588 -5.73301,0.03228 -8.59954,0.03228c0,0 -0.19078,0 -0.46694,-0.0527c-1.29553,0.21653 -2.79457,0.03597 -4.53306,0.10271c0,0 -2.5,0 -2.5,-2.5c0,-2.5 2.5,-2.5 2.5,-2.5c1.01443,0.06343 2.03458,0.31514 3.04329,0.1903c1.2301,-0.15224 0.49141,-2.4513 0.45671,-3.6903c-0.09917,-3.54148 -0.98405,-6.34237 -1,-10c-0.0245,-5.61733 -0.74067,-11.85916 0.03228,-17.40046c0.14562,-1.04398 0.86685,-1.95435 1,-3c0.53824,-4.22683 -0.53348,-8.66612 -0.01355,-12.905c0.46454,-3.7873 1.17602,-7.79901 1.84326,-11.58318c3.80522,0.08466 7.66066,0.44275 11.32164,1.48392c1.32706,0.37741 2.68967,0.62212 4.01533,1.00441c0.91534,0.26397 1.83669,0.53301 2.70149,0.93258c0.32895,0.15199 0.80906,1.06161 0.83178,0.69995c0.05393,-0.85866 -0.75047,-1.61876 -0.72007,-2.47858c0.05899,-1.66822 0.77061,-3.25479 0.98137,-4.9107c0.34044,-2.67486 -0.24407,-5.40569 0.01863,-8.0893c0.16257,-1.66069 0.79418,-3.25068 0.98117,-4.9088c0.74788,-6.63176 -0.78724,-13.52511 0.02539,-20.15032c0.16732,-1.36415 0.82614,-2.63667 1,-4c0.89918,-7.05086 -0.25126,-14.28925 -1.94433,-21.08916l-0.99976,-3.99904l1.12206,-0.28052l0.07155,-2.50132c0.76484,0.3836 1.5681,0.70594 2.35859,1.04866l0.64093,-0.64093l2,2l-0.03422,0.03422c0.0673,0.04842 0.13391,0.09792 0.1998,0.14858c0.80417,0.61824 0.80478,1.94896 1.58413,2.59821c1.55919,1.29889 4.04712,0.83222 5.79684,1.86014c1.18274,0.69483 1.81032,3.12841 3.11129,2.6935c0.493,-0.16481 0.46361,-0.94406 0.80662,-1.33464c1.39469,-1.58815 5.72799,-6.75733 7.81106,-7.54193c4.00274,-1.50766 8.91853,1.58986 12.95671,1.8097c0.9277,0.0505 2.01331,0.866 2.76825,0.3245c1.08808,-0.78045 1.02192,-2.49979 1.79186,-3.59534c0.86611,-1.23239 1.81417,-2.48255 3.06717,-3.31858c2.98382,-1.99088 6.64375,-1.41964 9.97226,-1.3783c1.68506,-0.58366 3.56225,-0.7327 5.08613,-1.65891c0.91525,-0.55628 1.33635,-1.86036 2.35762,-2.18307c1.50902,-0.47683 3.25251,-0.58178 4.74728,-0.06201c0.20894,0.07265 6.66527,5.97099 8.25272,5.06201c0.61485,-0.35207 0.91449,-1.08244 1.37174,-1.62366l3.19822,-2.14677c0,0 1.89604,-1.26402 3.27452,0.43172c1.62415,-0.54266 5.49484,-1.83326 5.71178,-1.86931c6.9561,-1.1558 13.94336,2.12403 20.70591,2.98645c2.64524,0.33734 5.35388,-0.33041 8,0c4.3423,0.54221 8.48287,2.42479 12.85159,2.9748c3.36335,0.42343 6.88154,-0.43019 10.24341,0.03875c1.87602,0.26168 3.70551,0.99124 5.59954,0.96772c3.45387,0 7.17551,0.40965 10.59954,0.03228c1.61524,-0.17802 2.68226,-1.84047 4.08613,-2.65891c1.26061,-0.73491 6.83318,-2.19587 8.00887,-2.35464c3.98202,-0.53776 6.99058,1.39228 10.70591,2.01355c1.09311,0.18279 2.27096,-0.27053 3.324,0.07499c1.14195,0.37469 1.84935,1.65296 3,2c1.0459,0.31545 2.18324,-0.12432 3.27554,-0.10727c0.68396,0.01068 1.41893,0.46975 2.04329,0.1903c0.86055,-0.38516 1.11512,-1.67463 2,-2c0.64819,-0.23834 5.89838,-0.1903 6.95671,-0.1903c4,0 8,0 12,0h1.03191c0.06106,-0.0725 0.12771,-0.14512 0.20033,-0.21774c1.76777,-1.76777 3.53553,0 3.53553,0c1.9604,2.96049 4.72944,-0.78943 6.7883,-2.27308c3.72459,-2.684 7.81886,-4.53185 11.73227,-6.86206c1.30603,-0.77767 2.22868,-2.62428 3.74846,-2.59682c0.86951,0.01571 5.09785,3.84645 5.89655,4.91476c0.53636,0.71742 0.54481,1.82373 1.24629,2.38079c0.37698,0.29936 0.95753,-0.12957 1.4199,-0.26353c2.04009,-0.59106 3.67563,-1.42475 5.75879,-1.94853c5.07844,-1.27689 11.99918,-3.80954 16.956,-0.71038c1.15039,0.71926 1.90745,1.92992 2.86117,2.89488c0.12101,1.08708 -0.49876,2.58766 0.36303,3.26123c0.83965,0.65627 2.11354,-0.28951 3.15601,-0.51076c1.76841,-0.3753 5.98793,-1.61679 7.69912,-1.94409c1.87074,-0.35781 3.93868,-1.68002 5.65098,-0.84593c1.81644,0.88482 2.19589,3.39505 3.19143,5.15325c1.26594,2.23575 3.22692,6.51831 3.96559,8.89304c0.21849,0.70242 -0.37256,1.80622 0.25364,2.19224c0.73414,0.45255 1.68447,-0.40583 2.5447,-0.46724c3.08189,-0.22002 6.89807,-0.2924 10,0c1.60079,0.1509 3.68883,-0.45991 4.76777,0.73223c1.19429,1.3196 0.24862,3.57006 0.68712,5.295c0.81513,3.20649 2.96518,5.98442 3.69846,9.21061c0.84913,3.73588 -0.78793,7.81628 1.80336,10.95246c0.69553,0 1.48904,0.35594 2.08658,0c1.10607,-0.65886 1.53956,-2.15266 2.64238,-2.81693c2.39236,-1.44101 7.28381,-2.51665 9.34243,0.66485c0.56901,0.87938 0.47189,8.56957 0.47189,10.46178c0,6.33333 0,12.66667 0,19c0,3.59032 -0.60649,8.02305 -0.03228,11.59954c0.13658,0.85068 0.55725,1.63058 0.84198,2.44375c0.33082,0.94479 0.13713,2.33057 1.00463,2.83008c1.25086,0.72025 3.38168,-0.85566 4.32368,0.23799c1.47283,1.70994 1.20444,4.35987 1.55663,6.58901c0.83599,5.2912 0.30536,10.9481 0.30536,16.29962c0,0.47601 0.00949,6.14598 -0.03228,6.40046c-0.38797,2.36339 -1.65634,4.53284 -1.98645,6.905c-0.5385,3.8696 -1.29255,7.51292 -2.40541,11.25138c0.00142,0.00213 0.00285,0.00426 0.00427,0.00639z"/></g></g></svg>