<svg version="1.1" xmlns="http://www.w3.org/2000/svg" xmlns:xlink="http://www.w3.org/1999/xlink" width="411.0291" height="316.05053" viewBox="0,0,411.0291,316.05053"><g transform="translate(-49.10011,15.65785)"><g data-paper-data="{&quot;isPaintingLayer&quot;:true}" fill="#f0ff00" fill-rule="nonzero" stroke="none" stroke-width="0.5" stroke-linecap="butt" stroke-linejoin="miter" stroke-miterlimit="10" stroke-dasharray="" stroke-dashoffset="0" style="mix-blend-mode: normal"><path d="M185.36777,195.66776c-1.76777,1.76777 -3.53553,0 -3.53553,0l-1,-1c-2.82706,-2.85644 -6.17628,-4.5256 -9.56911,-6.65524c-1.31536,-0.82564 -4.69568,-3.3485 -6.23751,-3.6794c-6.01854,-1.2917 -13.0143,1.50882 -19.02526,-0.0061c-1.80072,-0.45383 -3.1225,-1.97538 -4.3994,-3.4072c0.24483,0.34697 0.41973,0.7105 0.30875,0.93689c-0.84736,1.72849 -2.43107,3.04802 -3.99537,4.16992c-0.62589,0.44888 -1.80067,-0.26274 -2.28622,0.33515c-0.41773,0.51438 0.61944,1.30091 0.43961,1.93868c-0.48633,1.72483 -0.77753,3.97543 -2.34968,4.83561c-1.45748,0.79744 -3.2724,-0.57624 -4.9086,-0.86436c-4.32009,-1.52646 -5.46541,-3.52804 -8.84743,-6.48307c-1.08642,-0.94926 -2.24357,-1.8198 -3.43642,-2.63129c-0.58531,-0.39818 -1.25503,-1.31679 -1.88093,-0.98606c-0.70228,0.37109 -0.54524,1.51157 -0.61152,2.3031c-0.13907,1.66085 0.42162,3.38754 0,5c-0.49224,1.88251 -1.31824,3.78931 -2.66536,5.19338c-0.84388,0.87956 -2.51158,0.42088 -3.45807,1.18894c-0.32723,0.26554 0.64481,0.55133 0.90475,0.88302c1.08112,1.37952 2.43524,2.62212 3.10991,4.23975c0.60491,1.45038 0.42634,3.1141 0.60819,4.67502c0.17594,1.51019 0.04594,3.07595 0.46508,4.53744c0.72837,2.53972 2.67005,4.69596 3.07008,7.3076c0.20595,1.34455 -0.16574,2.73207 0.01174,4.08067c0.35867,2.72533 1.85404,5.92916 2.84173,8.39131c0,0 0.92848,2.32119 -1.39272,3.24967c-2.32119,0.92848 -3.24967,-1.39272 -3.24967,-1.39272c-1.30337,-3.26725 -2.65946,-6.08294 -3.15827,-9.60869c-0.18301,-1.29357 0.18077,-2.62386 0.01174,-3.91933c-0.28202,-2.16149 -2.42901,-4.91994 -2.92992,-6.6924c-0.80102,-2.83441 0.26997,-6.09617 -0.92672,-8.78754c-1.14843,-2.58283 -5.65377,-5.03952 -3.98534,-8.87722c0.70988,-1.63285 3.25491,-1.58073 4.54193,-2.81106c0.74882,-0.71583 1.16007,-1.7855 1.33464,-2.80662c0.63607,-3.72048 -1.69523,-8.19291 3.38848,-10.6969c1.85472,-0.91355 4.20628,0.2292 6.11907,1.01394c4.89198,2.00698 6.75564,7.37335 11.71614,8.88564c2.39512,2.49222 -0.44944,-1.84177 1.18133,-4.09007c1.31165,-1.80834 4.70408,-1.50454 5.71841,-3.49493c0.65903,-1.2932 -0.34226,-3.9193 1.07795,-4.21879c6.5713,-1.38576 4.9561,2.79286 8.83139,3.74848c5.92025,1.45989 12.97841,-1.37305 18.97474,-0.0061c2.66303,0.60707 5.46173,2.87755 7.76249,4.3206c3.71905,2.33261 7.30024,4.24096 10.43089,7.34476l1,1c0,0 1.76777,1.76777 0,3.53553z"/><path d="M392.36777,242.66776c-1.76777,1.76777 -3.53553,0 -3.53553,0l-0.35027,-0.5317c-2.38061,-1.21009 -4.75326,-2.58814 -6.64973,-4.4683c-1.00431,-0.99567 -2.14617,-1.87262 -3,-3c-0.25938,-0.34248 0.19739,-1.26777 -0.23223,-1.26777c-0.42962,0 0.03774,0.93357 -0.23223,1.26777c-0.80461,0.99602 -1.6401,2.17894 -2.86178,2.5623c-2.03097,0.63731 -10.25342,-0.46275 -11.6018,-1.49316c-1.23553,-0.94417 -0.4804,-3.1906 -1.38689,-4.45403c-0.87806,-1.22381 -2.61521,-1.55485 -3.68506,-2.6151c-1.9128,-1.89563 -2.48267,-5.32286 -4.96105,-6.37636c-0.61151,-0.25994 -1.24314,0.47268 -1.87896,0.66567c-1.46533,0.44479 -2.99328,0.69465 -4.42162,1.24681c-2.61285,1.01006 -4.61542,3.41663 -7.32893,4.11236c-3.79285,0.97246 -6.72507,-0.12597 -10.24801,-0.99089c0,0 -2.42536,-0.60634 -1.81902,-3.0317c0.60634,-2.42536 3.0317,-1.81902 3.0317,-1.81902c2.24086,0.57191 5.365,1.67358 7.75199,1.00911c1.39982,-0.38967 2.48712,-1.50344 3.74254,-2.23505c3.49025,-2.03398 3.47165,-2.15211 8.12215,-3.15299c1.48072,-0.31868 3.08316,-1.10693 4.5058,-0.58711c3.30589,1.20792 4.80803,5.37379 7.03895,7.62364c1.28716,1.29809 3.25562,1.89505 4.31494,3.3849c0.6951,0.9776 -0.27638,2.74119 0.61311,3.54597c0.86538,0.78296 2.33341,0.08036 3.49678,0.17252c0.9705,0.07688 1.96229,0.59084 2.90142,0.33432c0.58964,-0.16105 0.67248,-1.04184 1.13822,-1.4377c1.18208,-1.00473 2.21638,-2.73223 3.76777,-2.73223c1.55139,0 2.58395,1.72955 3.76777,2.73223c3.44786,2.9203 4.23483,4.5146 8.35027,6.5317l1.64973,1.4683c0,0 1.76777,1.76777 0,3.53553z"/><path d="M356.60001,134.39999c2.5,0 2.5,2.5 2.5,2.5l-0.29581,4.17964c-2.09791,1.59399 -4.58049,2.71795 -6.43642,4.58812c-0.92219,0.92927 -1.21768,2.4142 -2.25028,3.219c-0.6663,0.5193 -1.89141,-0.1217 -2.48938,0.47501c-0.37964,0.37884 0.41643,1.00477 0.47189,1.53822c0.10342,0.99464 0,2 0,3c0,0.87381 0.09503,9.41187 -0.29581,10.17964c-0.725,1.4242 -2.54496,1.93365 -3.81744,2.90048c0,0 -2.08013,1.38675 -3.46688,-0.69338c-1.38675,-2.08013 0.69338,-3.46688 0.69338,-3.46688c0.72752,-0.36651 1.82926,-0.3655 2.18256,-1.09952c0.40997,-0.85175 -0.26008,-1.87576 -0.29581,-2.82036c-0.1008,-2.66476 -0.16831,-5.33865 0,-8c0.09439,-1.49257 -0.35644,-3.21657 0.47189,-4.46178c0.70665,-1.06228 2.52336,-0.71684 3.51062,-1.52499c0.84749,-0.69373 0.97246,-2.0094 1.74972,-2.781c1.49348,-1.4826 3.68897,-2.4675 5.56358,-3.41188l-0.29581,-1.82036c0,0 0,-2.5 2.5,-2.5z"/><path d="M157.20635,115.47464c2.42536,0.60634 1.81902,3.0317 1.81902,3.0317l-1.88683,5.36417c-2.21885,0.08852 -4.59069,1.07998 -6.65656,0.26555c-1.66673,-0.65707 -1.98975,-3.03475 -3.34374,-4.20796c-0.58536,-0.50721 -1.49199,-0.41667 -2.23719,-0.62781c-1.05673,-0.2994 -2.07135,-0.9527 -3.16858,-0.90381c-1.04675,0.04664 -1.90216,0.90861 -2.91555,1.17488c-5.20908,1.36869 -9.79495,2.91211 -15.2169,2.82863c-1.32027,-0.02033 -2.7323,0.30401 -3.95671,-0.1903c-1.17144,-0.47293 -1.87404,-1.69462 -2.81106,-2.54193c0,0 -1.76777,-1.76777 0,-3.53553c1.76777,-1.76777 3.53553,0 3.53553,0c2.87187,3.52194 8.59627,0.54048 12.18565,-0.49238c1.61344,-0.46427 3.32819,-0.48614 4.95664,-0.89468c1.35104,-0.33894 2.56512,-1.30278 3.95749,-1.34167c0.78268,-0.02186 7.60571,1.67311 8.59422,2.46838c1.47974,1.19047 2.13657,3.68931 3.99969,4.05759l0.11317,-2.63583c0,0 0.60634,-2.42536 3.0317,-1.81902z"/><path d="M215.83607,51.01803c-1.11803,2.23607 -3.3541,1.11803 -3.3541,1.11803l-1.48831,-0.81071c-2.41603,-0.60513 -4.82093,-1.26737 -7.18423,-2.05365c0,0 -2.37171,-0.79057 -1.58114,-3.16228c0.79057,-2.37171 3.16228,-1.58114 3.16228,-1.58114c2.24105,0.74851 4.52331,1.37435 6.81577,1.94635l2.51169,1.18929c0,0 2.23607,1.11803 1.11803,3.3541z"/><path d="M279.10001,48.89999c0,2.5 -2.5,2.5 -2.5,2.5c-2.66667,0 -8.33333,0 -11,0c0,0 -2.5,0 -2.5,-2.5c0,-2.5 2.5,-2.5 2.5,-2.5c2.66667,0 5.33333,0 8,0h3c0,0 2.5,0 2.5,2.5z"/><path d="M452.10001,289.89999c0,-2.5 2.5,-2.5 2.5,-2.5l1.23223,0.73223c-1.59749,-2.68832 -0.73225,-6.21003 -0.73238,-9.2676c-0.00022,-4.99139 -0.05738,-9.98027 -0.11285,-14.9713c-0.03156,-2.83957 -0.43257,-5.48778 -0.27282,-8.10135c-2.22039,3.97145 -4.48388,7.91645 -6.82549,11.81933c-0.15077,0.25129 -5.25451,8.7698 -5.32535,8.83637c-0.0772,0.07254 -0.15558,0.14352 -0.23507,0.21304l0.02298,0.02341l-2.99538,2.94017c-0.45115,0.44348 -1.06986,0.71706 -1.75246,0.71706c-1.38071,0 -2.5,-1.11929 -2.5,-2.5c0,-0.0559 0.00183,-0.11138 0.00545,-0.16637l0.28824,-4.96999l0.0247,0.00143l-0.01643,-0.10606c2.04512,-14.22028 8.35367,-27.57216 9.70308,-42.02981c0.4008,-4.29419 -0.39451,-8.63901 0.02464,-12.8513c-3.90284,6.12415 -7.44993,12.38098 -10.85028,18.82204c-1.53256,2.90302 -2.97268,5.85597 -4.33786,8.84136c-1.04413,2.28332 -1.9643,5.38652 -4.11558,7.10051l-3.23418,3.79117c-0.45859,0.54436 -1.14531,0.89021 -1.91281,0.89021c-1.38071,0 -2.5,-1.11929 -2.5,-2.5c0,-0.30984 0.05636,-0.60651 0.1594,-0.88033l1.63159,-4.6647l0.00732,0.00256l0.00203,-0.02882c3.47107,-9.25706 7.0526,-18.44549 10.77361,-27.60489c2.83592,-6.98072 6.20048,-13.94649 8.27717,-21.19115c0.11574,-0.40378 0.23315,-0.80765 0.35191,-1.21162c-0.55912,-0.31139 -0.98632,-0.83109 -1.17667,-1.45419l-1.48544,-4.48449l0.00088,-0.00029l-0.00232,-0.00408c-2.07053,-6.34715 -3.87976,-13.33433 -4.60965,-19.99624c-0.86652,-7.90902 0.24228,-16.2009 -0.01058,-24.15723c-0.13189,-4.15006 0.07286,-9.42009 -0.91269,-13.42837c-0.1181,-0.48033 -0.3934,-0.90446 -0.68384,-1.32209c-2.93998,7.29561 -5.91008,14.57348 -8.76281,21.90743c-1.32942,3.41774 -2.48376,8.59239 -4.1894,11.80106l-1.56291,4.68873c-0.31417,1.02156 -1.26534,1.76412 -2.38994,1.76412c-1.38071,0 -2.5,-1.11929 -2.5,-2.5v-4c0.00001,-9.98065 0.06285,-19.64758 1.34167,-29.55536c0.20699,-1.51752 0.67383,-3.0219 0.62098,-4.55256c-0.05298,-1.53439 -0.84827,-3.16773 -0.95859,-4.77163c-0.34271,0.2654 -0.69625,0.52278 -1.00245,0.81504c-2.49758,2.38389 -5.17384,4.60028 -8.0195,6.55555c-1.53225,1.05282 -2.8272,2.62655 -4.61729,3.12836c-2.40966,0.67549 -5.4255,1.66476 -7.50283,0.26923c-1.64672,-1.10625 -0.67051,-3.9141 -0.862,-5.88863c-0.26409,-2.72317 -0.17582,-5.47811 0.00865,-8.20782c0.40954,-6.06003 2.01601,-12.35399 3.13725,-18.32004c0.27541,-1.46544 0.66984,-2.91124 0.85543,-4.39074c0.08759,-0.69828 0.53479,-1.70462 -0.03986,-2.11088c-0.87823,-0.62089 -2.6376,0.7094 -3.22077,-0.19432c-0.88126,-1.36567 -0.83668,-9.10495 -0.86965,-10.94655c-0.08087,-1.52278 -0.26676,-3.04365 -0.24577,-4.56829c-0.56839,1.27044 -1.23743,2.51788 -2.26879,3.41299c-1.92057,1.66684 -4.20648,4.27967 -6.67932,3.68636c-2.11283,-0.50693 -1.83909,-3.93809 -2.69447,-5.93543c-2.00056,-4.67135 -1.57061,-7.93997 -2.85441,-12.63471c-0.22618,-0.82711 -1.0214,-1.40454 -1.3182,-2.20901c-0.36569,-0.99115 0.31486,-2.65573 -0.64192,-3.10368c-0.79136,-0.37051 -0.82135,2.23761 -1.66817,2.02212c-1.80232,-0.45863 -3.32928,-1.96295 -4.3097,-3.54329c-0.64858,-1.04545 -0.00671,-2.46807 -0.17568,-3.68671c-0.18515,-1.33537 -0.59324,-2.63022 -0.88275,-3.94691c-1.24077,-5.64287 -2.2444,-13.09228 -1.10128,-19.25332c-0.68635,0.68949 -1.36364,1.38678 -1.96385,2.1504c-1.23038,1.56535 -1.53963,4.09459 -3.33499,4.95533c-9.29379,4.4557 -9.00443,-6.95258 -9.47754,-12.07712c-0.11792,-0.54355 -0.10033,-2.12577 -0.35376,-1.63066c-0.42485,0.83001 0.16402,1.94588 -0.23818,2.7871c-1.73535,3.62957 -4.69114,6.66661 -9.48846,3.86443c-4.09185,-2.3901 -4.16215,-11.5105 -5.09006,-15.47758c-0.18473,-0.7898 -0.48915,-1.54698 -0.71038,-2.32734c-0.1733,-0.61131 -0.09274,-2.35572 -0.47292,-1.84661c-0.57036,0.76379 0.22013,2.03133 -0.27383,2.84661c-1.18323,1.95291 -2.33062,4.59129 -4.55224,5.11879c-5.88821,1.39809 -9.13205,-6.02405 -9.4349,-10.16165c-0.08793,-1.20128 0.45874,-2.50417 -0.01058,-3.61348c-0.2107,-0.49802 -1.12721,-0.45985 -1.60824,-0.21282c-1.07999,0.55463 -1.67313,1.80289 -2.71186,2.43141c-1.77102,1.07162 -3.58107,2.33373 -5.63157,2.61712c-4.82015,0.66616 -8.43496,-4.46937 -10.54431,-7.70955c-0.63784,-1.58667 -1.29926,-3.16407 -1.91351,-4.76002c-0.36834,-0.95703 -0.25202,-2.23381 -1.03373,-2.89751c-0.90827,-0.77116 -3.07185,0.97277 -3.63322,1.30553c-1.45499,0.86247 -2.90045,1.74435 -4.39639,2.53366c-3.87587,2.04505 -7.51688,4.49284 -12.28647,1.92937c-1.2152,-0.65312 -0.65328,-2.6917 -1.17812,-3.96756c-1.28832,-3.13177 -3.01692,-6.12674 -3.80247,-9.42078c-0.3708,-1.55486 -0.51381,-3.15538 -0.76645,-4.73375c-0.12737,-0.79575 0.15114,-1.77696 -0.37359,-2.38859c-0.2968,-0.34596 -0.28784,0.91762 -0.63787,1.2096c-0.04915,0.041 -8.11415,5.40908 -8.15214,5.43602c-5.35972,3.80227 -9.5947,8.15572 -15.88808,10.43409c-2.00266,0.72502 -3.94956,2.14311 -6.07352,1.98471c-1.40439,-0.10474 -2.17673,-1.78745 -3.2651,-2.68118c-0.41074,-0.75592 -0.52176,-1.78263 -1.23223,-2.26777c-0.3548,-0.24227 0.01405,0.91575 -0.23223,1.26777c-0.57988,0.82883 -1.37391,1.4932 -2.15183,2.13978c-1.69014,1.40481 -8.2322,5.79011 -9.47972,5.43849c-2.01655,-0.56838 -1.94359,-3.73779 -2.56158,-5.7397c-0.25081,-0.81247 0.54082,-1.89292 0.00225,-2.55091c-0.35025,-0.42792 -1.00747,0.46062 -1.48516,0.73919c-1.3305,0.7759 -2.58427,1.68188 -3.93514,2.42175c-4.10136,2.24629 -8.17837,3.62104 -12.79004,4.34888c-2.03049,0.32046 -4.13046,1.36801 -6.11198,0.82104c-5.04661,-1.39307 -3.28514,-5.44633 -8.56004,-5.90501c-6.20673,-0.53972 -12.51854,0.40766 -18.73783,-0.17157c-4.22219,5.23828 -3.38109,12.18373 -7.18672,17.77531c-1.21675,1.78777 -1.9336,4.20185 -3.83432,5.23329c-1.15194,0.62511 -2.49578,-1.39703 -3.77342,-1.10489c-0.64465,0.1474 0.11139,1.34566 -0.06581,1.98276c-0.46737,1.68031 -1.09328,3.32266 -1.8473,4.89533c-1.42747,2.9773 -3.11847,5.85522 -5.13021,8.4734c-1.31479,1.71114 -2.32943,4.08737 -4.37639,4.77047c-2.16416,0.72221 -4.63426,-0.23223 -6.76296,-1.0531c-1.72715,-0.66603 -2.99219,-2.1803 -4.47958,-3.28227c-3.55263,-2.63204 -7.20232,-5.04529 -10.16162,-8.34401c-2.21041,-2.46393 -4.52749,-4.83711 -6.61917,-7.40262c-0.71466,-0.87655 -1.05988,-2.08817 -1.96556,-2.76554c-0.27692,-0.20712 -0.41802,0.551 -0.62703,0.82649c-0.06537,5.16269 -0.66864,11.10226 -1.67474,16.17376c-0.03413,0.17202 -2.84496,9.842 -2.88772,9.95079c-0.56725,1.44329 -1.66566,2.65622 -2.13105,4.13551c-0.74285,2.36121 0.06688,4.95031 0.06688,7.42562c0,3.33333 0.22615,6.67435 0,10c-0.13149,1.93355 0.51962,4.28831 -0.73223,5.76777c-1.0386,1.22744 -3.16125,0.66591 -4.76777,0.73223c-0.53587,0.02212 -1.11791,-0.80503 -1.53822,-0.47189c-0.46101,0.36539 0.04022,1.18882 -0.09007,1.76246c-0.51151,2.25221 -1.33429,4.42482 -1.87435,6.67035c-1.00913,4.19586 -1.64258,12.48047 -5.13133,15.49295c-1.7894,1.54512 -4.41662,1.68846 -6.62493,2.53269c-2.70628,-1.58154 -5.38125,-3.25448 -7.81552,-5.22921c-0.48979,-0.39732 -1.07347,-1.83403 -1.38704,-1.28683c-0.37218,0.64949 0.86003,1.28782 0.96147,2.02949c0.06069,0.4437 -0.04767,10.48541 -0.06688,10.57438c-0.31456,1.45715 -1.57054,2.57249 -2,4c-0.52106,1.73199 0.0669,3.61694 0.06688,5.42562c-0.00008,7.20184 2.0219,13.92062 1.83871,21.11825c-0.06556,2.57581 0.16482,10.67322 -2.31829,12.16402c-0.76523,0.45942 -1.60343,0.25431 -2.45191,-0.20541c1.156,4.01557 1.42685,8.26921 0.45775,12.70068c-0.34784,1.5906 -1.22323,3.03584 -1.55952,4.62893c-0.86496,4.09749 0.61873,8.72251 -0.27014,12.87274c-0.00878,0.041 -0.01772,0.08195 -0.02681,0.12286l0.01219,0.00174l-0.70711,4.94975l-0.89707,-0.12815c-0.27254,0.71264 -0.54285,1.4259 -0.78723,2.14631l-1.93308,-1.22919l-0.62525,0.62525l-2.74195,-2.74195c-1.05829,-0.44064 -2.0659,-1.05491 -2.95143,-1.80102c0.24455,1.56748 -0.03885,3.18469 -0.03885,4.7752c0,4.90759 0.55424,9.90705 -0.97488,14.66139c-0.4702,1.46196 -0.66044,3.16208 -1.22087,4.60111c0.75913,0.86361 1.49363,1.74263 1.99885,2.76499c0.55271,1.11848 0.39028,2.46469 0.55743,3.70103c0.65256,4.82661 1.06187,9.73176 0.33228,14.58883c-0.31751,2.1137 -0.197,4.43794 -1.27342,6.28452c-0.50637,0.86867 -1.92752,0.57327 -2.89127,0.85991c0.38953,1.26975 0.02401,2.6915 0.40502,3.96384c0.38971,1.30138 1.3366,2.37113 1.87658,3.61767c0.82058,1.89434 1.03065,4.02927 1.94633,5.87952c0.57836,1.16866 1.6203,2.08938 2.0938,3.30432c0.67404,1.72948 1.9563,8.66722 2.14165,10.56667c0.23242,2.38179 -0.86939,4.72037 -0.99332,7.11026c-0.07256,1.39915 1.4862,2.83411 2.20706,3.72552c0.55306,0.6839 6.52592,8.10156 6.65385,8.54291c0.6504,2.24393 0.63815,4.80958 -0.15488,7.00716c-0.45,1.24699 -2.3913,1.30102 -3.21742,2.33784c-0.73911,0.92761 -0.34803,2.59368 -1.28814,3.31682c-1.40958,1.08426 -3.39486,1.0607 -5.09228,1.59105c0,0 -2.42536,0.60634 -3.0317,-1.81902c-0.60634,-2.42536 1.81902,-3.0317 1.81902,-3.0317c0.96924,-0.13632 2.16352,0.2268 2.90772,-0.40895c0.70356,-0.60104 0.13197,-1.96209 0.71186,-2.68318c0.67707,-0.84194 2.25148,-0.7213 2.78258,-1.66216c0.49106,-0.86992 0.267,-2.08735 -0.15488,-2.99284c-1.67374,-3.59232 -6.04588,-6.01854 -7.83698,-9.6328c-0.63654,-1.28447 -1.25403,-2.66604 -1.3021,-4.09877c-0.0505,-1.50493 0.79919,-2.91144 1.01689,-4.4014c0.29875,-2.04463 -0.4702,-5.48882 -0.79249,-7.13776c-1.2473,-6.38181 -5.43375,-11.71376 -7.15937,-17.98239c-0.45589,-1.6561 0.26088,-6.67338 0.40502,-8.03616c1.03624,-0.38003 2.48598,-0.22882 3.10873,-1.14009c0.68039,-0.99563 0.0731,-2.41097 0.1408,-3.61498c0.07266,-1.29246 0.23771,-2.57957 0.28021,-3.87337c0.10484,-3.19163 -0.24556,-6.38775 -0.6025,-9.56109c-0.08885,-0.78995 0.16442,-1.67087 -0.20222,-2.37619c-0.64915,-1.24877 -1.80254,-2.16138 -2.70915,-3.23852l-1.84352,-2.05879c-0.40042,-0.4433 -0.64425,-1.03078 -0.64425,-1.67519c0,-1.38071 1.11929,-2.5 2.5,-2.5c0.52532,0 1.0128,0.16203 1.41519,0.43883l0.8194,0.54626c-0.22705,-0.62063 -0.62664,-1.34476 -0.5904,-1.90836c0.08441,-1.31288 0.74012,-2.54044 0.87074,-3.84953c0.48441,-4.85465 -0.5553,-9.87676 -0.01493,-14.72721c0.19228,-1.72591 -0.48194,-4.42573 1.12377,-5.0871c1.74436,-0.71848 7.13455,1.82926 9.58734,2.93164l0.02112,-0.14784l0.22207,0.03172c-0.78258,-4.19244 -0.66369,-9.40281 0.07896,-13.13488c0.80605,-4.05068 2.40711,-7.12477 1.97525,-11.38734c-0.57932,-5.71809 -3.01574,-10.1235 -6.52832,-14.48066l-1.83596,-2.05035c-0.40042,-0.4433 -0.64425,-1.03078 -0.64425,-1.67519c0,-1.38071 1.11929,-2.5 2.5,-2.5c0.69036,0 1.31536,0.27982 1.76777,0.73223l3.53553,3.53553l-0.30602,0.30602c0.01819,0.02498 0.03635,0.04998 0.05448,0.07499c1.34954,0.95021 2.62705,1.99072 3.78708,3.15452c0.58397,0.58587 1.30673,1.0625 1.74614,1.76334c0.00384,0.00613 0.00767,0.01245 0.0115,0.01897c-0.62548,-3.62981 0.19977,-7.05852 -0.11567,-10.82311c-0.46575,-5.55844 -1.98074,-10.60754 -1.9808,-16.26251c-0.00001,-0.61635 -0.0187,-6.26077 0.06688,-6.57438c0.39243,-1.43813 1.66664,-2.54704 2,-4c0.70261,-3.06238 -0.34119,-6.29566 -0.06688,-9.42562c0.17599,-2.00811 -0.69453,-4.8211 0.96147,-5.97051c4.20354,-2.91764 10.15775,3.2234 12.79744,5.48396c0.88661,-0.39374 2.02426,-0.44831 2.65984,-1.18121c1.16867,-1.34762 2.23251,-6.8672 2.5471,-8.18067c0.94701,-3.95396 1.64214,-8.14871 3.16245,-11.94212c0.57638,-1.43816 0.66397,-3.31662 1.90993,-4.23754c1.2027,-0.88893 2.96778,-0.5402 4.46178,-0.47189c0.47729,0.02182 1.08114,1.18551 1.23223,0.73223c0.24763,-0.7429 -0.65335,-1.45313 -0.73223,-2.23223c-0.33577,-3.31638 0,-6.66667 0,-10c0,-2.85821 -0.72221,-5.82725 0.06688,-8.57438c0.49218,-1.7135 1.69384,-3.14762 2.34109,-4.80877c1.14726,-2.94438 2.02543,-6.00531 2.64014,-9.10494c1.15927,-5.84548 1.25669,-11.9397 2.32526,-17.82624c1.79099,-1.05784 3.30494,-3.39692 5.37297,-3.17351c2.21332,0.23911 3.49362,2.77002 5.10551,4.30553c4.29632,4.09274 7.36881,8.60713 12.14814,12.18231c2.52161,1.88629 4.76401,4.19499 7.52042,5.71773c0.9265,0.51184 2.06255,1.30731 3.04285,0.90806c1.0968,-0.4467 1.34417,-1.95095 1.97647,-2.9523c2.58592,-4.09528 4.41373,-7.85529 6.37506,-12.23295c0.7151,-1.59609 0.90041,-3.79329 2.42295,-4.65395c1.25367,-0.70867 2.89558,1.44497 4.22658,0.89511c1.09743,-0.45337 0.89633,-2.20469 1.46567,-3.24669c0.64113,-1.17336 1.66382,-2.13928 2.15643,-3.38232c1.1178,-2.82063 0.90939,-6.04192 1.95765,-8.88914c1.06178,-2.88395 3.1457,-5.3837 5.39921,-7.47325c5.31837,-0.25579 10.63217,-0.19998 15.95671,-0.1903c3.73972,0.0068 6.73187,-0.41716 10.23175,1.3245c1.96394,0.97732 2.38441,4.26154 4.51367,4.78922c1.24576,0.30873 2.47178,-0.69883 3.72672,-0.96782c4.12304,-0.88376 7.62042,-1.84363 11.37126,-3.86226c2.60342,-1.40111 6.98163,-5.2552 10.57971,-2.83906c1.6065,1.07878 1.64679,3.54691 2.00225,5.44909c0.14261,0.76313 -1.30901,2.47017 -0.56158,2.2603c1.00466,-0.28208 1.01728,-1.85328 1.75179,-2.59449c0.79683,-0.8041 1.89698,-1.24454 2.76849,-1.96703c1.24871,-1.03519 4.14522,-4.76476 5.61594,-4.59245c2.00457,0.23485 3.17851,2.48816 4.76777,3.73223c0.24497,0.43961 0.23434,1.37088 0.7349,1.31882c1.20922,-0.12575 2.10488,-1.22522 3.21124,-1.7292c1.41176,-0.6431 2.98325,-0.9361 4.33001,-1.70608c6.74134,-3.85426 11.9508,-10.25329 18.98601,-13.8039c1.49286,-0.75344 3.20715,-2.40645 4.72112,-1.69639c2.01633,0.94566 2.76524,3.55757 3.62641,5.61141c0.67086,1.59995 0.48222,3.44093 0.87754,5.13019c0.74173,3.16947 2.70734,5.93751 3.69606,9.03881c0.17605,0.5522 -0.84453,1.46101 -0.32065,1.70891c1.38157,0.65377 6.29216,-2.34188 6.6578,-2.54276c3.4805,-1.9122 8.53889,-6.39844 13.02612,-3.68867c1.68409,1.017 2.09333,3.33941 2.96627,5.10249c0.72026,1.45471 1.20026,3.0165 1.80039,4.52475c0.84545,1.36385 3.36888,5.52526 5.74179,5.00568c4.96218,-1.08654 8.04341,-9.54343 14.04833,-3.16429c2.986,3.17208 0.4027,5.70671 1.47198,8.78626c0.07652,0.22038 2.2727,3.80094 3.08253,3.43862c0.98111,-0.43895 0.86583,-1.97753 1.44776,-2.88121c1.14768,-1.78223 1.61865,-4.92563 3.72617,-5.15339c2.29123,-0.24761 4.01343,2.41561 5.52708,4.15339c0.85221,0.97839 0.95823,2.41819 1.28962,3.67266c0.83752,3.17037 1.10793,6.47088 1.91409,9.64936c0.24919,0.98248 0.32069,2.11707 0.99585,2.87306c0.73199,0.81963 1.90751,-1.21755 2.51154,-2.13557c1.17783,-1.7901 1.62755,-5.02153 3.76182,-5.2129c2.37029,-0.21253 3.76416,2.91289 5.64624,4.36934c0.28503,1.91656 0.58733,3.83063 0.85508,5.74968c0.12971,0.92964 0.25906,1.86029 0.3372,2.79568c0.04232,0.5066 -0.32942,1.15922 0.02371,1.52491c0.30443,0.31526 1.02712,0.19028 1.30648,-0.14739c0.85989,-1.03938 1.0212,-2.52527 1.80997,-3.6196c0.97306,-1.35 2.27311,-2.4307 3.41501,-3.64165l1.89155,-2.89649c0.44284,-0.70111 1.22465,-1.16677 2.11521,-1.16677c1.22888,0 2.25067,0.88665 2.46053,2.05512l0.9715,4.85749l-0.02422,0.00484c0.02091,0.07892 0.04107,0.15808 0.06044,0.2375c1.12769,4.62322 -0.50132,10.23515 0.01682,14.97634c0.33736,3.08695 1.63962,6.01439 2.0003,9.09871c0.08982,0.76808 -0.04221,1.55158 -0.17568,2.31329c-0.03175,0.18118 -0.45669,0.56728 -0.3097,0.45671c0.8145,-0.61272 1.43552,-2.46312 2.33183,-1.97788c0.51979,0.2814 5.45911,6.6601 6.03988,8.68731c0.75583,2.6383 0.27122,5.53428 1.04906,8.16617c0.45684,1.54577 1.50495,2.90123 1.81043,4.48388c0.1775,0.91957 -1.24236,2.35366 -0.40838,2.7798c0.79076,0.40406 0.87341,-1.54649 1.32068,-2.31364c0.87665,-1.50361 4.49284,-8.8042 7.36327,-7.77375c2.3814,0.85489 2.75975,4.30983 3.52951,6.72009c0.54546,1.70794 0.22079,3.57905 0.33119,5.36857c0.0305,1.68643 0.22635,3.37799 0.09151,5.05929c-0.06979,0.87025 -1.28108,1.87264 -0.69969,2.52394c0.61843,0.6928 2.18518,-0.90813 2.77923,-0.19432c3.8395,4.61352 1.00997,11.23865 0.13523,16.23993c-1.04227,5.95911 -2.18048,11.68337 -2.17376,17.73058c0.00111,1 0.16629,2.01392 0,3c-0.12641,0.7496 -1.50527,1.7063 -0.862,2.11137c0.74921,0.47178 1.64485,-0.67736 2.39667,-1.14498c1.25211,-0.77879 2.38785,-1.73085 3.59301,-2.58049c3.48547,-2.45727 6.20472,-5.75927 9.62446,-8.17335c1.40946,-0.99498 2.98313,-3.47642 4.47232,-2.60528c2.10732,1.23273 1.98812,4.47236 2.70757,6.80534c0.53098,1.72182 0.96546,3.50616 1.02764,5.30692c0.06218,1.80076 -0.43942,3.57678 -0.65913,5.36516c-0.75798,5.87249 -1.07488,11.65648 -1.20694,17.47554c0.34959,-0.81074 0.65983,-1.53792 0.88862,-2.12638c3.2334,-8.3163 6.42988,-16.64161 10.01778,-24.81364v-2.62022c0,-1.38071 1.11929,-2.5 2.5,-2.5c0.99801,0 1.85943,0.58479 2.26029,1.43041l2.21185,4.42369c0.87172,1.23573 1.57958,2.55604 1.93897,3.98515c0.44611,1.77393 0.30012,3.64602 0.43878,5.46992c0.61457,8.08378 0.65012,16.08607 0.65012,24.19082c0,2.91789 -0.33347,5.85351 -0.01217,8.75366c0.67267,6.07154 2.29133,12.44635 4.1708,18.27253c0.26648,-0.78456 0.58212,-1.56686 0.78711,-2.32892c1.24448,-4.62631 1.47036,-9.85859 2.22031,-14.59318l0.43719,-0.36858l-0.18337,-0.12224l1.97849,-2.96774c0.44514,-0.68925 1.2201,-1.14551 2.10163,-1.14551c1.38071,0 2.5,1.11929 2.5,2.5c0,0.15625 -0.01433,0.30915 -0.04176,0.45746l-0.81425,4.88551c-0.06305,6.43138 -3.26658,13.50501 -5.02481,19.62837c-2.59313,9.03109 -5.96347,17.8583 -9.5189,26.62641c2.20447,-3.74359 4.50819,-7.42916 6.89659,-11.06095l1.89259,-2.87739c0.44366,-0.69701 1.2231,-1.1594 2.11054,-1.1594c1.22888,0 2.25067,0.88665 2.46053,2.05512l0.9715,4.85749l-0.02416,0.00483c0.0209,0.07898 0.04104,0.15821 0.0604,0.2377c0.01567,0.06435 0.02365,10.02405 0.02366,10.24491c0.00044,8.33834 -1.79972,17.13131 -3.7897,25.24844c-1.46932,5.99337 -3.70672,11.67934 -5.08846,17.64088c0.79679,-1.22982 1.65655,-2.43245 2.38745,-3.65055c3.09847,-5.16385 6.01074,-10.42803 9.0078,-15.65079l0.3023,-0.17671l-0.0791,-0.0791l2,-2c0.45241,-0.45241 1.07741,-0.73223 1.76777,-0.73223c1.31881,0 2.39911,1.02118 2.49333,2.31595l0.41326,4.95916l-0.46974,0.03915c1.04441,6.62076 1.02301,13.12623 1.06271,20.13609c0.03402,6.00645 0.18143,11.87116 -0.73179,17.81742l-4.76777,0.73223c0,0 -2.5,0 -2.5,-2.5z"/></g></g></svg>