<svg version="1.1" xmlns="http://www.w3.org/2000/svg" xmlns:xlink="http://www.w3.org/1999/xlink" width="398.10753" height="331.26749" viewBox="0,0,398.10753,331.26749"><g transform="translate(-58.57359,17.60002)"><g data-paper-data="{&quot;isPaintingLayer&quot;:true}" fill="#f0ff25" fill-rule="nonzero" stroke="none" stroke-width="0.5" stroke-linecap="butt" stroke-linejoin="miter" stroke-miterlimit="10" stroke-dasharray="" stroke-dashoffset="0" style="mix-blend-mode: normal"><path d="M442.10001,300.84999c0,2.26853 -2.05849,2.47857 -2.43967,2.49802c-0.63412,0.71104 -1.24207,1.46386 -2.10362,1.81168c-0.70126,0.28311 -5.34097,0.17311 -6.55625,0.15802c-2.01679,0.69622 -4.26521,0.74401 -6.16871,1.70778c-0.81353,0.4119 -1.13117,1.48928 -1.91742,1.95113c-3.09399,1.81744 -9.35375,3.82549 -12.91387,4.34109c-5.21328,0.75503 -11.12686,0.03228 -16.40046,0.03228c-6.29875,0 -13.10135,0.73547 -19.35124,-0.03237c-1.65165,-0.20292 -3.23922,-0.81503 -4.89511,-0.9798c-5.8917,-0.58623 -10.63865,-0.78537 -16.22642,-3.03294c-9.42387,0.0939 -19.51016,1.03889 -28.87657,0.01293c-1.6548,-0.18126 -3.24586,-0.76804 -4.89701,-0.97999c-1.15037,-0.14767 -2.37524,0.26381 -3.47812,-0.0951c-2.28101,-0.74231 -4.19378,-2.6765 -6.581,-2.91146c-4.40762,-0.43382 -9.26563,0.01873 -13.69454,0.01873c-10.66667,0 -21.33333,0 -32,0c-15.1147,0 -30.39782,0.64205 -45.49324,-0.1085c-5.30483,-0.26376 -9.49925,-2.4345 -14.71296,-2.90001c-11.0671,-0.98815 -22.6694,0.00852 -33.7938,0.00852c-10.66434,0 -21.50482,0.57363 -32.15534,-0.00483c-6.77767,-0.36812 -13.22958,-2.57849 -20,-3c-7.40545,-0.46105 -15.24521,1.85443 -21.19365,-3.34577c-0.09699,-0.05886 -0.15104,-0.0994 -0.15104,-0.0994c-2.42841,-1.82205 -5.40961,-3.03089 -7.3742,-5.34549c-1.01674,-1.19789 -1.2263,-2.92457 -2.15391,-4.19273c-0.14679,-0.20067 -5.73839,-5.56723 -6.059,-6.08555c-0.91148,-1.47358 -1.12613,-3.29564 -1.96058,-4.81416c-2.33922,-4.2569 -5.73261,-8.06267 -8.13126,-12.33643c-1.60708,-2.86338 -2.61645,-6.05565 -4.39479,-8.81593c-2.09622,-3.25368 -10.04377,-8.72627 -6.59788,-13.64828c4.14959,-5.92716 9.6483,-2.12006 14.33241,0.14215c-1.36195,-1.97667 -2.21992,-4.32196 -3.24056,-6.62838c-2.39518,-5.41258 -5.3503,-10.87834 -7.28403,-16.4613c-0.61161,-1.76579 -2.18142,-7.39203 -0.6643,-9.27567c1.13441,-1.40847 3.22915,-1.8526 5.02811,-2.03822c1.31135,-0.13531 2.60557,0.55061 3.79057,1.12829c0.4629,0.22566 0.77985,1.67167 0.97768,1.19621c0.41619,-1.00025 -0.23806,-2.1704 -0.12407,-3.24776c0.13303,-1.25733 0.81944,-2.43085 0.85859,-3.69459c0.04721,-1.52376 -0.40876,-3.02147 -0.60365,-4.53345c-0.99478,-7.71786 -2.48943,-15.048 -4.28978,-22.61741c-0.96529,-2.56639 -1.92936,-5.13324 -2.88956,-7.70154l-1.93337,-3.86674c-0.18291,-0.34741 -0.28642,-0.74312 -0.28642,-1.16302c0,-1.38071 1.11929,-2.5 2.5,-2.5c0.22872,0 0.45026,0.03071 0.66073,0.08824l1.84431,0.46108c-0.27667,-0.5076 -0.7675,-1.09288 -0.95398,-1.54665c-1.95905,-4.76704 -3.96162,-9.45581 -5.75161,-14.29656l-1.86061,-2.79091c-0.27681,-0.40239 -0.43883,-0.88987 -0.43883,-1.41519c0,-1.38071 1.11929,-2.5 2.5,-2.5c0.64653,0 1.23573,0.24542 1.67954,0.64818l3.70934,3.33841c6.00494,3.75843 10.06375,10.61936 16.01907,14.44758c2.4139,1.55171 5.14439,2.54447 7.71008,3.82976c1.28001,0.64123 2.64618,1.1342 3.83867,1.92637c0.38655,0.25679 0.65874,1.59299 0.78847,1.14742c0.72213,-2.48008 -0.26217,-5.16193 -0.25585,-7.745c0.0212,-8.66778 -2.95832,-16.00927 -7.3473,-23.36701l0.00398,-0.32207l-0.11113,0.03366l-1.41066,-4.65687c-0.08062,-0.24556 -0.12423,-0.50791 -0.12423,-0.78044c0,-0.47402 0.13192,-0.91722 0.36106,-1.2949l-0.04304,-0.30129l0.29338,-0.04191c0.0289,-0.03329 0.05867,-0.06581 0.08927,-0.09753c-1.79103,-2.55629 -2.16991,-5.60418 -3.2207,-9.04717c-2.90607,-9.52197 -4.2795,-19.48012 -6.32925,-29.21671c-0.02,-0.095 -2.13692,-9.6369 -2.13594,-9.72905c0.01954,-1.8411 -0.52956,-4.69205 1.17089,-5.39807c5.37517,-2.23174 11.00275,6.52496 13.31433,9.62663c0.9119,1.22359 1.65534,2.58869 2.71804,3.68387c0.66195,0.68218 1.64367,0.96962 2.38034,1.57035c0.33017,0.26924 0.5968,1.39262 0.78359,1.00972c0.47955,-0.98304 0.08253,-2.19763 0.31705,-3.26597c0.35496,-1.61696 0.96205,-3.16808 1.44308,-4.75212c1.76355,-5.80576 4.99685,-12.16622 5.88953,-18.14224c0.68345,-4.57539 -0.03163,-9.97211 -0.03163,-14.6036v-3c0,-1.38071 1.11929,-2.5 2.5,-2.5c0.69036,0 1.31536,0.27982 1.76777,0.73223l2,2l-0.02053,0.02053c0.06297,0.0528 0.12503,0.10685 0.18612,0.16226c1.29541,1.17481 1.94912,2.90413 2.92027,4.35847c3.60334,5.39615 5.82105,11.46367 9.26831,16.90461c2.67363,4.2199 5.99221,7.9734 8.64806,12.23688c2.3482,3.76962 5.20755,6.98015 8.51887,9.97273c0.43504,0.39316 1.10622,1.36826 1.49411,0.92851c0.667,-0.75617 0.27441,-1.99965 0.33833,-3.00593c0.30716,-4.83619 0.32783,-9.7158 0.3571,-14.55943c0.02839,-4.69813 -0.80575,-9.00835 -1.57677,-13.63942c-1.0374,-4.69948 -1.4274,-9.43389 -2.35613,-14.1367c-1.13516,-5.74807 -2.87408,-11.36781 -4.01331,-17.12541l0.05444,-0.24071l-0.06717,0.00032l-0.01941,-4.09509c-0.00003,-0.00462 -0.00004,-0.00924 -0.00004,-0.01386c0,-1.38071 1.11929,-2.5 2.5,-2.5c0.69036,0 1.31536,0.27982 1.76777,0.73223l3.53553,3.53553l-0.02019,0.02019c0.06858,0.06083 0.13654,0.12245 0.20384,0.1849c1.11251,1.03227 1.48002,2.65707 2.36001,3.89354c0.2103,0.2955 0.54179,0.79689 0.8731,0.64932c3.31243,-1.47534 4.79203,-7.42971 5.9491,-10.41973c3.51477,-9.08267 6.43319,-18.44734 9.8472,-27.58111l1.04902,-4.08537c0.25811,-1.10582 1.25017,-1.92951 2.43461,-1.92951c0.95782,0 1.78983,0.53864 2.20964,1.32954l2.40396,4.32714c2.96743,4.04512 4.31386,9.15518 6.55775,13.58222c1.2551,2.47622 3.43898,4.54926 4.11179,7.24264c0.13883,0.55575 -1.00518,1.96326 -0.53772,1.63218c1.87321,-1.32669 2.08607,-4.0928 3.00074,-6.19812c2.68801,-6.18701 6.1971,-11.933 9.23537,-17.95153l0.17882,-0.15785l-0.04536,-0.0347l2.88271,-3.76871c0.45597,-0.60882 1.18312,-1.00281 2.00229,-1.00281c1.21151,0 2.22174,0.86176 2.45115,2.00574l1.07397,4.83287l-0.43985,0.09775c1.88858,5.93556 3.27503,11.98438 5.90145,17.71546c0.7132,1.55627 0.6583,3.88535 2.19293,4.644c2.83726,1.40259 4.16258,-1.59952 5.58812,-3.09911c2.56783,-2.70122 4.80518,-5.7096 7.38618,-8.38254c1.35499,-1.40327 2.45606,-3.21538 4.21421,-4.0604c1.50017,-0.72103 3.6212,-1.31949 4.98044,-0.35882c1.54576,1.0925 1.31254,3.5515 2.02059,5.30695c0.86575,2.14645 1.58783,4.36734 2.70099,6.39655c0.4749,0.86571 1.56645,2.10137 2.84686,1.14831c1.03382,-0.76951 1.47882,-2.11111 2.21823,-3.16667c1.9249,-2.65257 3.96406,-5.22572 5.77718,-7.95591c0.98458,-1.48257 1.44482,-3.38151 2.77986,-4.55841c1.77409,-1.56396 4.02722,-4.23838 6.23401,-3.38781c2.17505,0.83833 1.41811,4.44199 2.19919,6.63824c1.63383,4.594 3.57544,8.82475 5.79232,13.14652c0.49173,0.95862 1.43258,1.82849 2.48264,2.06958c0.45997,0.10561 1.05219,0.61309 1.38762,0.28111c1.97015,-1.94983 2.58431,-4.91763 4.13973,-7.21197c3.53121,-5.20875 7.22074,-10.26745 11.6615,-14.71391l2.35403,-3.30922c0.45124,-0.65154 1.20412,-1.07829 2.05667,-1.07829c1.38071,0 2.5,1.11929 2.5,2.5v4.93307c0.79653,4.80851 0.14059,9.85416 0.85391,14.67513c0.47715,3.22487 1.55211,6.33271 2.28695,9.50879c0.5043,2.17964 1.58215,4.33122 3.15136,5.92582c0.76432,0.77669 1.46425,2.00933 2.55348,2.04124c2.02331,0.05927 4.11931,-5.09198 4.48612,-5.76048c2.92817,-5.33652 5.47088,-10.11377 9.7569,-14.43523l2.35462,-3.31005c0.45124,-0.65154 1.20412,-1.07829 2.05667,-1.07829c1.24305,0 2.27422,0.90723 2.46747,2.09567l0.88663,4.87646l-0.28105,0.0511c2.42189,7.37631 4.28081,14.95857 7.02338,22.2806c0.82208,2.19476 1.0464,4.59235 1.9471,6.75604c0.18692,0.44902 0.62936,1.00664 1.1118,0.94495c2.27967,-0.2915 3.61927,-3.74999 4.4455,-5.06262c3.62973,-5.76657 7.76236,-10.82975 11.75376,-16.31297l2.60644,-3.57619c0.45308,-0.6373 1.19747,-1.05305 2.03896,-1.05305c1.38071,0 2.5,1.11929 2.5,2.5v5h-0.48937c0.71297,6.60351 0.48937,13.15165 0.48937,20c0,2.24063 0.92593,6.94894 0.03975,9.90221c0.87608,-1.20915 1.74256,-2.43454 2.76497,-3.52182c0.03886,-0.04132 7.62045,-6.88672 7.69407,-6.9359c1.74816,-1.16791 3.6131,-3.50071 5.61781,-2.86725c4.73775,1.49707 3.86389,8.23656 3.8834,11.42277c0.04941,8.07042 -0.77213,16.13347 -1.39085,24.17701c-0.45918,5.96928 -1.06719,11.69239 -2.69987,17.49032c-0.36575,1.29884 -0.68925,2.62661 -1.2055,3.87134c1.63565,-1.32584 3.32703,-2.59605 4.81923,-4.08014l1.87535,-2.81303c0.44514,-0.68925 1.2201,-1.14551 2.10163,-1.14551c1.18975,0 2.18539,0.83109 2.43804,1.9444l0.98732,3.94927l-0.38661,0.09665c0.58518,1.70146 1.00939,3.4444 1.15706,5.22196c0.13588,1.63572 -1.11014,4.95565 0.53011,4.89544c4.17705,-0.15333 5.52548,-5.69617 10.39212,-3.84378c1.37266,0.52248 1.19324,2.70012 2.00859,3.92174c1.064,1.59416 3.16279,2.38308 4.04887,4.08258c0.22789,0.4371 0.41175,0.89866 0.55715,1.37424c0.34955,-0.68081 0.70975,-1.35393 0.8899,-1.9156c0.45391,-1.41521 0.47633,-2.93376 0.70935,-4.40187l0.17132,-2.95275c0.0665,-1.32136 1.15892,-2.37227 2.49679,-2.37227c1.25484,0 2.29374,0.92451 2.47274,2.12954l0.81524,4.89143c0.5564,1.5656 0.53617,3.27958 0.81942,4.91679c0.76033,4.3949 1.83204,8.80922 2.37141,13.2374c0.61617,5.05871 0.71705,9.48157 2.13487,14.40579c1.13774,3.95149 1.2014,4.94591 2.97684,8.52579c0.17321,0.34925 0.3489,0.9967 0.72984,0.91387c1.21983,-0.26524 2.15798,-1.26312 3.29058,-1.78807c0.50504,-0.23408 1.28698,-0.01824 1.59988,-0.47862c1.68786,-2.4834 2.0948,-5.62828 3.16834,-8.4325c1.17698,-3.07441 2.37129,-6.14538 3.3944,-9.27437c0.61678,-1.8863 1.17773,-3.79607 1.719,-5.71279c-0.03518,-2.94592 -0.17543,-5.89511 0.00745,-8.83425c0.14092,-2.26471 -0.92836,-5.22142 0.73223,-6.76777c1.59431,-1.48462 4.7507,-1.24911 6.53553,0c2.15906,1.51101 0.03989,7.81535 -0.35382,9.41806c-0.62829,2.1751 -1.25873,4.34451 -1.90381,6.50635c-0.00644,0.28456 -0.01013,0.56586 -0.01013,0.84336c0,7.65038 0.20188,15.10731 0.89509,22.73259c0.2922,3.21418 0.16381,6.49212 0.85641,9.64437c0.67423,3.06864 2.71189,5.69555 3.61429,8.705c0.14492,0.48331 -0.75548,1.65907 -0.28102,1.4874c1.88828,-0.68324 1.59662,-5.78909 1.72632,-6.2326c0.10825,-0.3702 2.93349,-6.32827 3.54493,-7.62258l0.21032,-0.16442l-0.06634,-0.04975l2.98254,-3.97672c0.45492,-0.62044 1.18914,-1.02328 2.01746,-1.02328c1.38071,0 2.5,1.11929 2.5,2.5c0,0.29691 -0.05176,0.58173 -0.14675,0.84593l-1.56269,4.68806c-0.45669,3.08079 -1.93555,5.92336 -2.75161,8.929c-1.29793,4.78045 -2.47745,9.56981 -3.46348,14.42336c-0.3398,1.67258 -0.54058,3.37873 -1.01007,5.01963c-0.25121,0.878 -1.14471,1.57848 -1.13906,2.49169c0.00276,0.44595 0.79374,0.41256 1.15862,0.66897c1.20911,0.84969 2.88828,1.32788 3.55772,2.64538c0.91702,1.80476 0.59845,4.00479 0.84242,6.01441c1.78594,14.71059 0.53239,30.20678 0.50651,45.0194c0.19093,1.16144 0.52507,2.3108 0.66875,3.47623c0.9355,-2.74887 2.43826,-5.51498 3.48778,-8.0722l1.54305,-4.62916c0.31417,-1.02156 1.26534,-1.76412 2.38994,-1.76412c1.38071,0 2.5,1.11929 2.5,2.5c0,0.21553 -0.02727,0.42469 -0.07856,0.62421l-1.12886,4.81447l-0.01545,-0.00362c-0.00192,0.02952 -0.00393,0.05905 -0.00604,0.08857c-0.26654,3.72837 -2.72338,7.7681 -3.37096,11.52525c-0.15532,0.90111 -0.50079,1.88475 -0.17157,2.73783c0.33945,0.87958 1.75804,1.08877 2,2c0.53086,1.99926 0.3306,4.14014 0.17813,6.20305c-0.31516,4.26432 -1.48601,9.62419 -3.13724,13.60496c-0.49127,1.18435 -1.73597,2.1518 -1.73318,3.43399c0.00187,0.85891 1.54116,1.06171 1.74478,1.89614c0.04067,0.16665 0.20009,7.30706 0.13781,8.81857c-0.0575,1.39552 0.4058,2.97196 -0.29581,4.17964c-1.29804,2.23431 -4.6869,2.48055 -6.32999,4.47486c-1.53089,1.85813 -2.80027,4.7543 -3.22523,7.35754c0.46703,0.36229 0.85106,0.95809 0.85106,1.93792zM440.13438,302.84034l0.23339,-0.22259c-0.07934,0.07174 -0.15699,0.14616 -0.23339,0.22259zM251.35099,-4.62949c0.14123,-0.37862 0.27159,-0.75961 0.32272,-1.14846c0.06395,-0.48639 -0.10707,0.36354 -0.32272,1.14846z"/></g></g></svg>