<svg version="1.1" xmlns="http://www.w3.org/2000/svg" xmlns:xlink="http://www.w3.org/1999/xlink" width="403.29759" height="218.00877" viewBox="0,0,403.29759,218.00877"><g transform="translate(-69.10003,-83.39901)"><g data-paper-data="{&quot;isPaintingLayer&quot;:true}" fill="#f0ff00" fill-rule="nonzero" stroke="none" stroke-width="0.5" stroke-linecap="butt" stroke-linejoin="miter" stroke-miterlimit="10" stroke-dasharray="" stroke-dashoffset="0" style="mix-blend-mode: normal"><path d="M194.97173,87.10943c0.79057,2.37171 -1.58114,3.16227 -1.58114,3.16227l-4.36495,1.06142c-0.79411,-0.70781 -1.40749,-1.69762 -2.38232,-2.12342c-0.62686,-0.27381 -1.35951,0.20898 -2.0433,0.1903c-0.61452,-0.01678 -1.31198,-0.64146 -1.82036,-0.29582c-0.74076,0.50364 -0.64711,1.71493 -1.24629,2.38079c-1.29647,1.44073 -2.52728,3.21455 -4.35897,3.84815c-1.70402,0.58943 -3.71348,-2.26278 -5.2471,-1.31456c-0.35799,0.22134 -0.04454,0.85197 -0.18352,1.24925c-0.74713,2.13581 -2.93904,8.60391 -5.89742,9.12002c-1.67105,0.29152 -2.95308,-1.73119 -4.1797,-2.90286c-0.86908,-0.83015 -1.24964,-2.06117 -2,-3c-0.62072,-0.77662 -1.57122,-1.278 -2.09475,-2.12319c-0.62743,-1.01295 -0.54368,-2.40329 -1.28622,-3.33515c-0.28486,-0.3575 -1.07446,-0.34758 -1.37135,0c-0.62938,0.73686 -0.69866,1.81033 -0.96962,2.74074c-0.79431,2.72746 -1.49461,5.48443 -2.39186,8.17979c-0.94494,2.06297 -0.97555,4.88819 -2.83481,6.18891c-1.33533,0.93418 -3.2216,-0.50341 -4.817,-0.83576c-3.36375,-0.70074 -7.82665,-2.00263 -11.14076,-0.18586c-1.10042,0.60324 -2.37549,1.12827 -3.07756,2.16842c-0.66422,0.98408 -0.30864,2.37759 -0.738,3.4845c-1.11671,2.87892 -3.24207,7.63264 -7.34471,7.63264c-1.88133,0 -3.5501,-1.50902 -4.87419,-2.84549c-0.94356,-0.95238 -1.50132,-5.04816 -1.5562,-3.70865c-0.09892,2.41424 -1.33745,4.651 -2.21751,6.9013c-1.97633,5.05345 -0.94529,8.99936 -5.66263,12.99558c-1.42427,1.20655 -3.06945,2.67664 -4.93581,2.64508c-1.5966,-0.02699 -5.57104,-5.1008 -6.39784,-6.06457c-1.78693,-2.08847 -2.95686,-4.722 -5.01032,-6.54906c-0.81087,-0.72147 -1.98457,-0.8904 -2.91987,-1.44107c-0.26877,-0.15824 -0.68745,-0.97584 -0.65785,-0.66536c0.04968,0.52114 0.70117,0.86917 0.72712,1.39202c0.22937,4.62145 -2.39578,8.83856 -4.20919,12.85292c-1.70309,3.77013 -2.92012,8.44527 -3.83062,12.45908c-1.20959,5.33232 -0.95508,11.0822 -0.95508,16.52821c0,6.92198 -0.22093,13.87832 0.27859,20.78316c1.04698,7.37824 0.72141,14.77032 0.72141,22.21684c0,8.89008 0,17.78017 0,26.67025c-0.55294,2.72752 -0.4664,5.57863 -0.5,8.32975l1.53945,2.0336c-0.23369,1.96897 -0.7862,4.04497 -0.97495,5.83353c0.06521,1.13012 0.13034,2.26075 -0.06334,3.35572c-0.00058,2.74536 -0.00699,6.96236 -0.03344,7.17762c-0.12856,1.04622 -0.84707,1.95706 -1,3c-0.63097,4.303 0.03228,9.22574 0.03228,13.59954c0,2.19987 -0.35145,4.42295 -0.03228,6.59954c0.49766,3.39388 2.34546,7.83121 0.84198,11.35716c-1.8851,4.42091 -4.53212,3.39826 -8.3097,3.54329c0,0 -2.5,0 -2.5,-2.5c0,-1.08042 0.46693,-1.69392 0.9972,-2.04228c-0.04041,-7.80798 -0.48227,-15.68753 1.03193,-23.35091l0.01942,-0.0971c0,0 0.44761,-2.23809 2.62593,-2.00962c0.0026,-2.01367 0.09246,-3.99838 0.35779,-5.90055c0.14562,-1.04398 0.86685,-1.95435 1,-3c0.04568,-0.3587 0.07976,-0.71892 0.10421,-1.08042c-0.31744,-0.0602 -0.65976,-0.19666 -1.02323,-0.43899c-2.08012,-1.38675 -0.69338,-3.46688 -0.69338,-3.46688c0.49439,-0.68493 1.2508,-1.24973 1.57831,-2.01117c-0.11616,-1.89079 -0.20835,-3.77941 -0.01105,-5.63163c-0.04127,-3.98863 0.01286,-7.9824 0.01286,-11.97045c0,-9.33334 0,-18.66666 0,-28c0,-7.26486 0.34227,-14.48714 -0.69279,-21.68265c-0.51227,-7.08646 -0.30721,-14.21351 -0.30721,-21.31735c0,-5.76555 -0.21957,-11.81962 1.04492,-17.47178c1.38071,-6.17165 3.75341,-11.7047 6.14538,-17.48493c0.94678,-2.2879 1.45775,-4.7529 1.81481,-7.20308c0.22424,-1.53875 -0.4467,-3.58809 0.72712,-4.60798c1.3546,-1.17695 3.57658,-0.98614 5.34215,-0.66536c5.22783,0.94982 7.47927,5.99442 10.57771,9.60243c0.89407,1.04403 1.8846,2.01262 2.6822,3.13207c0.24738,0.34721 -0.01227,1.25222 0.41204,1.21079c0.57157,-0.0558 0.70411,-0.90753 1.06419,-1.35492c0.84907,-1.05491 1.98946,-1.92521 2.56319,-3.15184c1.13693,-2.43076 0.81133,-5.34776 1.77419,-7.85257c0.59586,-1.55008 1.5925,-2.9216 2.22998,-4.45504c0.62651,-1.50706 0.18331,-3.75538 1.55251,-4.64366c5.85045,-3.79551 6.44127,1.23426 8.44379,4.29135c0.29453,0.44964 0.58829,1.15451 1.1258,1.15451c0.53751,0 0.84656,-0.69522 1.1258,-1.15451c1.42293,-2.34041 1.16091,-5.52758 2.79149,-7.72836c1.23784,-1.6707 3.12821,-2.78076 4.92244,-3.83158c2.80949,-1.6454 7.31668,-1.71662 10.46572,-1.26682c1.49302,0.21326 2.99447,0.51769 4.39351,1.08097c0.51323,0.20664 0.86332,1.6158 1.18299,1.16423c0.63829,-0.90165 0.21831,-2.19861 0.32747,-3.29792c1.07596,-3.22339 2.23097,-11.82562 5.47625,-13.59265c6.81256,-3.70937 6.83247,1.11016 9.34243,4.66486c0.5142,0.72822 1.34803,1.18095 1.90525,1.8768c0.65772,0.82135 1.32278,1.66219 1.80564,2.59591c0.36218,-2.75263 2.33795,-7.23817 3.93372,-8.1295c1.37958,-0.77058 3.15562,-0.50873 4.72774,-0.34915c0.75417,0.07655 1.30004,1.25557 2.02516,1.03459c2.31295,-0.70486 2.28925,-4.58217 4.39473,-5.77107c0.64187,-0.36244 7.37435,-0.38805 8.13636,-0.10551c0.77435,0.28712 1.07845,1.25105 1.61767,1.87658l1.63505,-0.93859c0,0 2.37171,-0.79057 3.16228,1.58114zM75.10002,292.89999c-0.01366,-0.48789 -0.04224,-0.96173 -0.0814,-1.42568c0.02683,1.63444 0.05993,3.26672 0.07424,4.89189c0.56259,-0.63535 0.03632,-2.42505 0.00715,-3.46621z"/><path d="M176.36778,225.66776c-1.76777,1.76777 -3.53553,0 -3.53553,0l-1.68306,-2.27435c-0.45365,-2.41187 -1.85995,-4.54614 -2.9373,-6.75119c-1.00442,-2.05579 -1.72664,-4.39246 -3.37965,-5.97445c-0.37376,-0.45836 -1.16482,-2.19757 -2.27552,-1.45807c-0.67956,0.45245 -0.94007,1.40066 -1.64238,1.81693c-2.67297,1.58429 -6.3581,1.44504 -8.9995,2.99969c-1.98612,1.16897 -3.1522,3.37428 -4.5412,5.21326c-0.91004,1.20486 -1.78927,2.44185 -2.52784,3.7588c-0.70367,1.25473 -0.58194,3.13947 -1.78401,3.92973c-1.35982,0.89397 -3.24703,0.63817 -4.86223,0.43961c-0.6404,-0.07872 -1.02055,-1.65224 -1.50128,-1.22188c-0.68829,0.61618 -0.0631,1.85228 -0.21985,2.76269c-0.27847,1.61744 -0.67632,3.21307 -1.08275,4.80318c-1.59168,6.22726 -3.31228,11.70191 -3.29567,18.18828c0,0 0,2.5 -2.5,2.5c-2.5,0 -2.5,-2.5 -2.5,-2.5c0.01605,-6.92135 1.75308,-12.78761 3.45154,-19.42696c0.66008,-2.5803 1.5985,-9.18491 3.9502,-10.81888c1.24978,-0.86836 3.0112,0.45675 4.49872,0.77812c0.39741,0.08586 0.87806,0.75244 1.13777,0.43961c0.44319,-0.53384 -0.08821,-1.44668 0.21599,-2.07027c0.79945,-1.63885 1.92962,-3.09957 3.01916,-4.5617c0.53719,-0.72089 4.53059,-5.62455 5.9118,-6.46624c2.64584,-1.61234 6.39109,-1.41433 9.0005,-3.00031c0.91525,-0.55628 1.33182,-1.87508 2.35762,-2.18307c4.63707,-1.39225 4.88622,-0.0246 7.72448,2.54193c1.97221,2.03361 3.08558,4.76749 4.33426,7.31031c1.26938,2.58497 2.7529,5.14655 3.3488,7.96404l0.31694,-0.27435c0,0 1.76777,1.76777 0,3.53553z"/><path d="M395.60002,258.39999c-2.5,0 -2.5,-2.5 -2.5,-2.5l0.07227,-1.40325c-1.57509,-6.51666 -0.62158,-12.81479 -1.23896,-19.42723c-0.18439,-1.97494 -0.88779,-3.99853 -0.45134,-5.93345c-2.69882,2.24366 -6.50865,1.26393 -9.88197,1.26393c-4.00848,0 -8.33965,0.41548 -12.30546,-0.01873c-1.36878,-0.14987 -2.64485,-0.80489 -4.00778,-1.00097c-3.03068,-0.43601 -6.41824,0.11401 -9.07786,-1.40308c-3.2549,-1.85664 -3.41226,-7.55946 -8.27707,-7.59934c-0.6244,-0.00512 -1.10437,0.66174 -1.45764,1.17663c-1.57888,2.30123 -2.36932,5.05598 -3.67001,7.52514c-0.87317,1.65757 -4.4174,7.59322 -4.94937,7.98263c-1.14802,0.84037 -2.83654,0.22515 -4.25482,0.33772c0,0 -2.5,0 -2.5,-2.5c0,-2.5 2.5,-2.5 2.5,-2.5c0.58173,0.11257 1.31151,0.74146 1.74518,0.33772c0.91743,-0.85409 0.99811,-2.30129 1.5649,-3.41929c2.02211,-3.98862 4.87968,-13.45893 10.35808,-13.89632c4.79655,-0.38295 7.65424,2.71931 10.28431,5.91652c0.60789,0.73898 0.6134,1.99976 1.43863,2.48414c1.7153,1.00682 5.05759,0.32952 6.92214,0.59692c8.98045,1.28794 18.74711,1.78445 27.8048,0.24423c0.76942,1.54448 1.78012,2.99073 2.30825,4.63344c2.48913,7.74226 0.03903,16.17294 2.00145,24.00588l0.07227,2.59675c0,0 0,2.5 -2.5,2.5z"/><path d="M462.83225,286.66776c-1.76776,-1.76776 0,-3.53553 0,-3.53553l0.26792,0.74021c0.01745,-1.57932 0.06431,-8.12513 0.21856,-8.90197c0.30696,-1.54586 1.4068,-2.8505 1.77123,-4.38383c0.21229,-0.89322 0.60887,-2.14063 -0.07492,-2.75329c-0.79122,-0.70893 -2.5224,0.66657 -3.18279,-0.16559c-0.94885,-1.19565 -0.71609,-6.46809 -0.69995,-8.16822c1.82977,-5.65974 5.004,-11.1355 6,-17c0.94974,-5.59213 -1.00844,-11.13565 -1.03228,-16.59955c-0.01833,-4.20258 0.09325,-8.41787 -0.05205,-12.61876c-0.05006,-1.44734 0.18108,-2.95695 -0.25816,-4.33694c-1.21414,-3.81453 -5.273,-6.54729 -6.58252,-10.31984c-0.32792,-0.9447 0.30142,-2.04651 0,-3c-0.72454,-2.2919 -3.39995,-3.6724 -4,-6c-0.47643,-1.84806 -0.07151,-3.81631 -0.10727,-5.72446c0,-7.32174 0.92629,-15.34954 0.03228,-22.59954c-0.47183,-3.8263 -3.0935,-7.23888 -3.9654,-10.82608c-0.52108,-2.14386 0.96568,-4.5785 0.12342,-6.61768c-0.26178,-0.63379 -1.13157,-0.79899 -1.57894,-1.3187c-1.78393,-2.07244 -3.33396,-5.1542 -5.81059,-6.67153c-2.73059,-1.67292 -6.09307,-2.16956 -8.76255,-3.93837c-3.67273,-2.43357 -5.65524,-5.66273 -10.53823,-5.5281c-2.89958,-0.05285 -5.7196,-1.19151 -8.37424,-2.35909c-2.17636,-0.95722 -4.24896,-2.70122 -6.62576,-2.64091c-0.92431,0.02345 -1.67794,0.89332 -2.59955,0.96772c-2.16715,0.17494 -4.5566,0.70543 -6.51849,-0.23166c-1.27281,-0.60795 -5.34385,-7.06199 -6.6,-8.41993c-1.45273,-1.57044 -4.26335,-0.68495 -6.23867,-1.50644c-2.57435,-1.07062 -4.21455,-4.34453 -4.51101,-6.90924c-0.06799,-0.58822 1.22728,-1.36333 0.69995,-1.63269c-0.76896,-0.39278 -1.62528,0.70356 -2.48861,0.71905c-1.02707,0.01843 -2.03122,-0.33707 -3.01866,-0.6202c-1.81023,-0.51905 -8.34058,-2.78824 -9.94977,-3.68721c-1.40643,-0.78569 -2.42165,-2.17625 -3.84962,-2.92206c-2.13034,-1.11266 -4.96254,-0.03029 -7.13083,-1.06706c-0.8958,-0.42833 -1.16671,-1.607 -1.75007,-2.41049c-0.97161,-0.42772 -1.854,-1.24258 -2.91481,-1.28317c-0.65316,-0.02499 -1.06217,0.76368 -1.61666,1.10979c-1.38398,0.86387 -2.79316,1.68672 -4.19651,2.51875c-1.31287,0.77839 -2.43173,2.17723 -3.95201,2.3124c-2.2881,0.20344 -4.71931,-0.29752 -6.75579,-1.36034c-2.17374,-1.13446 -2.3837,-4.64885 -4.56561,-5.76752c-1.77972,-0.91246 -4.12788,0.70368 -6,0c-1.80228,-0.67742 -1.91071,-2.88054 -4.0433,-2.8097c-1.42311,0.04727 -4.15471,2.37564 -4.90162,2.74578c-0.65764,0.32591 -5.29071,1.72319 -6.15578,2.06971c-3.83833,1.53754 -6.71729,3.12962 -10.94259,3.18451c0,0 -2.5,0 -2.5,-2.5c0,-2.5 2.5,-2.5 2.5,-2.5c3.53712,0.06314 5.87293,-1.54339 9.05741,-2.81549c1.90519,-0.76107 4.01283,-1.00561 5.84421,-1.9303c2.77091,-1.39908 3.53614,-3.30466 7.09838,-3.25421c1.50907,0.02138 2.98391,0.66082 4.31433,1.37337c0.71969,0.38545 0.89548,1.4873 1.64238,1.81693c1.82972,0.80753 4.2065,-0.88508 6,0c3.12382,1.54157 4.42518,7.6371 8.48441,6.8333c0.91004,-0.18021 1.46282,-1.14553 2.24218,-1.64877c0.40575,-0.26199 7.0735,-4.44644 8.18684,-4.37146c2.26752,0.15271 4.24664,1.62049 6.36996,2.43073c0.32172,0.6252 0.34057,1.55272 0.96517,1.87561c0.62782,0.32455 1.39987,-0.3861 2.1002,-0.29099c1.62624,0.22087 3.29075,0.51097 4.76897,1.22393c1.55136,0.74823 2.65113,2.23008 4.15038,3.07793c1.22044,0.69017 7.54716,2.84604 8.8111,3.22095c2.5,0.74156 5.71433,-0.46142 7.73185,1.1907c0.5872,0.48085 0.14506,7.04839 2.18894,7.45807c1.23172,0.24689 2.57174,-0.46728 3.76775,-0.08303c1.50828,0.48458 2.84352,1.48705 3.99358,2.57659c1.31207,1.24304 2.23328,2.84408 3.28196,4.31614c0.75253,1.05634 0.97754,2.64633 2.11803,3.26393c1.96422,1.06367 5.11772,-1.29315 6.88197,-1.26393c5.44442,0.09018 9.6212,5.14366 15,5c1.19146,0.02229 2.42781,-0.25783 3.57439,0.06687c4.28268,1.21283 6.4899,4.12338 9.88739,6.40502c2.57936,1.73221 5.89932,2.10999 8.52222,3.77554c3.34825,2.12615 4.50392,4.65694 6.90464,7.61456c0.75891,0.93496 1.98023,1.56069 2.42106,2.6813c1.32232,3.36129 -0.71559,4.13823 0.12343,7.38233c0.95718,3.70094 3.53199,7.19815 4.03459,11.17393c0.95,7.51485 0.03228,15.81172 0.03228,23.40045c-0.03575,1.42518 -0.43858,2.88894 -0.10727,4.27554c0.5586,2.3379 3.21177,3.72922 4,6c0.32792,0.9447 -0.30142,2.04651 0,3c1.15589,3.65641 5.35508,6.44803 6.56244,10.25509c1.699,5.3573 0.57227,12.86043 0.54483,18.46937c-0.00927,1.89416 0.73669,3.7195 0.96772,5.59955c0.36057,2.93427 0.51264,8.6781 0,11.80091c-0.97027,5.91055 -4.05095,11.37294 -6,17c0.01076,0.86651 0.188,1.74707 0.03228,2.59954c-0.08586,0.47001 -1.15759,1.01462 -0.73223,1.23223c0.83746,0.42843 2.28668,-0.9424 2.81721,-0.16559c1.37241,2.00954 1.87901,4.61906 1.88623,7.05251c0.00522,1.75755 -1.4997,3.21506 -1.85065,4.93722c-0.04361,0.21402 -0.11166,7.14847 -0.12071,7.97118l-1.73208,2.74021c0,0 -1.76777,1.76776 -3.53553,0z"/><path d="M162.71805,133.66393c2.23607,1.11803 1.11803,3.3541 1.11803,3.3541l-3.23607,3.38197c-3.212,0 -8.18873,-0.92435 -11.27554,-0.10727c-1.28311,0.33964 -4.96689,3.61214 -5.54896,4.83902c-0.5891,1.24171 -0.31791,2.80684 -1,4c-0.71725,1.25467 -2.2401,1.88485 -3.04887,3.08258c-0.51593,0.76405 -0.45643,1.79386 -0.81693,2.64238c-1.15335,2.71473 -2.9339,5.14718 -3.96499,7.91066c-1.55053,4.15569 -0.21944,4.85135 -3.47052,8.78714c-0.9018,1.09172 -2.32496,1.61708 -3.48744,2.42562c0,0 -2.08013,1.38675 -3.46688,-0.69338c-1.38675,-2.08013 0.69338,-3.46688 0.69338,-3.46688c3.96432,-2.48407 3.47318,-4.62334 5.04204,-8.78724c0.34504,-0.91578 3.57145,-7.01649 4.03501,-8.08934c0.47068,-1.08931 0.53022,-2.3667 1.18307,-3.35762c0.76101,-1.1551 2.26506,-1.71629 2.95113,-2.91742c0.68166,-1.19341 0.36461,-2.78132 1,-4c1.19852,-2.29875 6.11127,-6.46146 8.45104,-7.16098c3.44289,-1.02932 9.10006,-0.10727 12.72446,-0.10727l-1.23607,-0.61803c0,0 1.11803,-2.23607 3.3541,-1.11803z"/><path d="M357.60002,154.39999c-1.7785,0 -2.29177,-1.26522 -2.43991,-1.99551c-2.54341,-0.0012 -6.11797,-0.0291 -6.5168,-0.19479c-1.52564,-0.63383 -2.34521,-2.33562 -3.62826,-3.37634c-2.56446,-2.0801 -5.25655,-3.68123 -7.34838,-6.34838c-0.62599,-0.79815 -0.78796,-1.96971 -1.58413,-2.59821c-0.76558,-0.60435 -2.0004,-0.29708 -2.79684,-0.86014c-1.46745,-1.03744 -2.7754,-2.34446 -3.8123,-3.8123c-1.58377,-2.24199 -1.21886,-4.52156 -4.20521,-5.83645c-1.22912,-0.54118 -1.19089,1.73586 -1.20045,1.92258c-0.06133,1.19833 0.02152,2.3997 0.03228,3.59954c0,0 0,2.5 -2.5,2.5c-2.5,0 -2.5,-2.5 -2.5,-2.5c0.0335,-4.56723 -0.10119,-11.09641 6.83183,-10.47788c1.63399,0.14578 5.79998,3.58522 6.79479,5.16355c0.56206,0.89174 0.44815,2.10191 1,3c1.10555,1.79919 3.74853,2.00013 5.39086,3.32756c1.08165,0.87426 1.53763,2.32338 2.41587,3.40179c1.94906,2.39329 4.3712,3.68877 6.65162,5.65162c0.89351,0.76908 1.2964,2.14043 2.37174,2.62366c0.92711,0.41661 2.02725,-0.16285 3.04329,-0.1903c1.33285,-0.03601 2.66667,0 4,0l2.5,4.5c0,0 0,2.5 -2.5,2.5z"/></g></g></svg>