<svg version="1.1" xmlns="http://www.w3.org/2000/svg" xmlns:xlink="http://www.w3.org/1999/xlink" width="87.52337" height="84.502" viewBox="0,0,87.52337,84.502"><g transform="translate(-196.23831,-137.749)"><g data-paper-data="{&quot;isPaintingLayer&quot;:true}" fill-rule="nonzero" stroke-width="0.5" stroke-linecap="butt" stroke-linejoin="miter" stroke-miterlimit="10" stroke-dasharray="" stroke-dashoffset="0" style="mix-blend-mode: normal"><g><path d="M214.51744,192.08233c0.60164,-0.42552 1.19267,-0.86224 1.70216,-1.39037c3.01612,-3.12642 5.81062,-7.53942 7.69191,-11.47033c0.72048,-1.50542 0.84414,-3.22946 1.28464,-4.83923c0.44127,-1.6126 1.30657,-3.08635 1.77279,-4.69191c1.65274,-5.69173 2.03042,-11.43443 4.06664,-17.06362c1.12719,-3.07304 3.06524,-7.34084 5.28339,-9.80945c6.03245,-6.7136 16.1793,-4.8892 23.85254,-3.47672c2.25028,0.41423 5.29001,0.55254 7.41581,1.40595c4.18263,1.67915 7.77661,5.59304 10.75203,8.83272c4.31221,6.30855 6.10166,15.38105 4.70697,22.95763c-0.42233,2.29428 -1.18676,5.92622 -2.59354,7.80516c-0.60795,0.81199 -1.66011,1.16888 -2.44731,1.80861c-3.29037,2.67395 -7.42263,6.06333 -11.50985,7.44474c-2.5824,0.87281 -4.65973,1.04976 -7.18687,2.28516c-6.02569,1.22539 -12.54817,0.33522 -18.55206,2.05148c-2.44201,0.69807 -2.44492,1.30616 -3.59136,3.13152c-0.9209,1.46626 -2.50873,2.43367 -3.4347,3.89673c-0.47924,0.7572 -0.47793,1.80837 -1.10075,2.45266c-3.56776,3.69082 -9.21364,2.62332 -13.55705,1.73186c-1.10323,-0.22643 -2.31225,-0.18314 -3.30027,-0.72371c-1.97129,-1.07856 -2.62179,-3.0308 -3.53375,-4.85964c-0.19766,-1.01828 -0.39533,-2.03657 -0.59299,-3.05485l0.19646,-1.16636c-0.02228,-0.32712 0.04574,-0.62763 0.14917,-0.88564l0.09428,-0.55975c0,0 0.38318,-2.0816 2.43174,-1.81265z" fill="#ffa815" stroke="#e09512"/><path d="M214.17901,202.20604c0.39643,0.07297 0.70489,0.34754 0.83903,0.69838c0.32191,-0.31341 0.69236,-0.61726 1.11714,-0.91246l0.51869,-0.35742c0,0 0.91692,-0.63183 1.54876,0.28509c0.63183,0.91693 -0.28509,1.54876 -0.28509,1.54876l-0.51869,0.35742c-2.50812,1.71091 -2.26153,3.78556 -1.85672,6.65173c0.23871,2.89694 3.91429,3.15649 3.31198,6.87814c-0.13501,0.83422 -0.54249,1.60599 -0.91692,2.36359c-0.29805,0.60307 -0.50194,1.37235 -1.0905,1.6981c-3.3993,1.88145 -6.09461,-1.21851 -8.05773,-3.18352c-0.4637,-0.46415 -1.05147,-0.8395 -1.37037,-1.41287c-0.24561,-0.44161 0.08777,-1.65437 -0.38158,-1.46714c-0.75635,0.3017 -0.97655,1.38689 -1.70628,1.74825c-2.32353,1.15061 -4.94575,-0.5521 -6.86585,-1.65341c-1.28555,-1.80703 -2.76019,-4.37939 -1.49067,-6.65273c0.20475,-0.36664 0.81341,-0.35961 1.03738,-0.71484c0.56884,-0.9022 0.95297,-2.2288 1.98108,-2.51259c1.64644,-0.45447 4.76015,1.70873 6.33312,0.50543c0.30967,-0.2369 0.22839,-0.77135 0.4862,-1.06384c1.48266,-1.6821 3.78427,-2.82662 5.3744,-4.47828c0,0 0.77521,-0.79938 1.5746,-0.02418c0.79939,0.77521 0.02418,1.57459 0.02418,1.57459c-0.05369,0.05501 -0.10823,0.10952 -0.16357,0.16355c0.17367,-0.05872 0.3643,-0.0753 0.55739,-0.03976z" fill="#ffffff" stroke="#000000"/><path d="M220.54621,203.61965c-0.20159,1.09514 -1.29673,0.89355 -1.29673,0.89355l-1.11473,-0.36597c-2.00511,1.24536 -3.69701,-1.78744 -4.1034,-3.03207c0,0 -0.30945,-1.06968 0.76023,-1.37913c0.98462,-0.28484 1.3251,0.59883 1.37303,0.74117c0.19231,-0.48345 0.70481,-0.78015 1.23603,-0.68236c0.30242,0.05567 0.55363,0.22865 0.71533,0.46331l0.71484,1.03738l-0.17694,0.12192l0.34894,0.27706c-0.03181,0.1097 -0.0552,0.2252 -0.07375,0.34403c0.24754,0.11951 0.47992,0.27586 0.67424,0.43664l0.04936,-0.15227c0,0 1.09514,0.20159 0.89355,1.29673z" fill="#ffa815" stroke="none"/><path d="M233.89272,185.24311c-0.20159,1.09514 -1.29673,0.89355 -1.29673,0.89355l-0.55163,-0.13535c-1.5788,-0.71838 -2.60802,-1.97361 -4.05801,-2.55859c0,0 -1.01355,-0.46118 -0.55237,-1.47473c0.46118,-1.01355 1.47473,-0.55237 1.47473,-0.55237c1.60421,0.78199 2.39065,1.79991 4.05801,2.55859l0.03245,-0.02783c0,0 1.09514,0.20159 0.89355,1.29673z" fill="#e09512" stroke="none"/><path d="M256.39609,185.36287c-0.67007,0.88937 -1.55944,0.2193 -1.55944,0.2193l-1.02309,-0.77203c-1.35228,-0.85262 -2.62974,-2.24826 -4.21114,-2.48741c0,0 -1.09514,-0.20159 -0.89355,-1.29673c0.20159,-1.09514 1.29673,-0.89355 1.29673,-0.89355c2.01955,0.415 3.34821,1.7573 5.07302,2.8448l1.09817,0.82618c0,0 0.88937,0.67007 0.2193,1.55944z" fill="#e09512" stroke="none"/><path d="M246.11052,167.89385c0.07004,1.11134 -1.04129,1.18137 -1.04129,1.18137l-1.49354,0.06081c-0.89212,-0.41024 -1.62089,-1.12016 -2.34263,-1.78593c-0.80974,-0.74694 -3.07561,-0.72112 -4.10543,-0.91069c0,0 -1.09514,-0.20159 -0.89355,-1.29673c0.20159,-1.09514 1.29673,-0.89355 1.29673,-0.89355c1.61435,0.29717 3.79551,0.33343 5.13224,1.39363c0.48362,0.38357 0.75123,1.05347 1.31582,1.30298l0.95028,-0.0932c0,0 1.11133,-0.07004 1.18137,1.04129z" fill="#e09512" stroke="none"/><path d="M268.46522,167.69838c0.15507,1.10269 -0.94762,1.25776 -0.94762,1.25776l-1.54612,0.04162c-1.6492,-0.75094 -2.83983,-2.00307 -4.35004,-2.61235c0,0 -1.01355,-0.46118 -0.55237,-1.47473c0.46118,-1.01355 1.47473,-0.55237 1.47473,-0.55237c1.66628,0.81225 2.59684,1.81514 4.35005,2.61235l0.31362,-0.21991c0,0 1.10269,-0.15507 1.25776,0.94762z" fill="#e09512" stroke="none"/><path d="M258.70856,147.61609c0.60483,0.11134 1.00488,0.6919 0.89355,1.29673c-0.11134,0.60483 -0.6919,1.00488 -1.29673,0.89355c-0.0538,-0.0099 -0.10597,-0.02352 -0.15631,-0.04053c-0.0836,-0.00363 -0.13573,-0.01323 -0.13573,-0.01323l-0.84366,-0.18911c-2.24799,-1.02822 -3.0574,-2.6392 -4.92798,-4.01219c0,0 -0.88936,-0.67007 -0.2193,-1.55944c0.67007,-0.88937 1.55944,-0.2193 1.55944,-0.2193c1.73324,1.33199 2.45253,2.83307 4.5102,3.76383l0.32448,0.02592c0,0 0.05213,0.0096 0.13154,0.03597c0.0531,0.00203 0.1067,0.00788 0.1605,0.01779z" fill="#e09512" stroke="none"/><path d="M243.90541,155.13749c-0.53756,0.97519 -1.51275,0.43763 -1.51275,0.43763l-1.39613,-1.35846c-0.07513,-1.59251 -0.87916,-2.79696 -0.99961,-4.41107c0,0 -0.07004,-1.11133 1.0413,-1.18137c1.11134,-0.07004 1.18137,1.0413 1.18137,1.0413c0.07513,1.59251 0.87916,2.79696 0.99961,4.41106l0.24858,-0.45184c0,0 0.97519,0.53756 0.43763,1.51275z" fill="#e09512" stroke="none"/><path d="M276.99503,177.85425c1.09514,0.20159 0.89355,1.29673 0.89355,1.29673l-0.09132,0.31244c0.02567,0.4073 0.05134,0.81461 0.07701,1.22191c0,0 0.07004,1.11133 -1.0413,1.18137c-1.11134,0.07004 -1.18137,-1.0413 -1.18137,-1.0413c-0.02567,-0.4073 -0.05134,-0.8146 -0.077,-1.2219l0.12371,-0.8557c0,0 0.20159,-1.09514 1.29673,-0.89355z" fill="#e09512" stroke="none"/><path d="M278.04534,160.79824c-1.02304,0.43974 -1.46277,-0.5833 -1.46277,-0.5833l0.13905,-0.40982c-0.37146,-0.16902 -0.74292,-0.33805 -1.11439,-0.50707c0,0 -1.01355,-0.46118 -0.55237,-1.47473c0.46118,-1.01355 1.47473,-0.55236 1.47473,-0.55236c0.37146,0.16902 0.74293,0.33804 1.11439,0.50707l0.98465,1.55744c0,0 0.43974,1.02304 -0.5833,1.46277z" fill="#e09512" stroke="none"/><path d="M227.13483,193.66097c0.04453,-0.24193 0.27676,-0.40195 0.51869,-0.35742c0.24193,0.04453 0.40195,0.27676 0.35742,0.51869c-0.04453,0.24193 -0.27676,0.40195 -0.51869,0.35742c-0.24193,-0.04453 -0.40195,-0.27676 -0.35742,-0.51869z" fill="#e09512" stroke="none"/><path d="M221.7474,191.76346c0.04453,-0.24193 0.27676,-0.40195 0.51869,-0.35742c0.24193,0.04453 0.40195,0.27676 0.35742,0.51869c-0.04453,0.24193 -0.27676,0.40195 -0.51869,0.35742c-0.24193,-0.04453 -0.40195,-0.27676 -0.35742,-0.51869z" fill="#e09512" stroke="none"/><path d="M228.12885,199.32944c0.1759,0.40921 -0.23332,0.58511 -0.23332,0.58511c-0.27281,0.11726 -0.71082,0.30554 -0.98363,0.4228c0,0 -0.40921,0.1759 -0.58511,-0.23332c-0.1759,-0.40921 0.23332,-0.58511 0.23332,-0.58511c0.27281,-0.11726 0.54562,-0.23453 0.81843,-0.35179l0.1652,-0.07101c0,0 0.40921,-0.1759 0.58511,0.23332z" fill="#e09512" stroke="none"/><path d="M241.32404,184.6485c0.43806,0.08064 0.35742,0.51869 0.35742,0.51869c-0.05376,0.29204 -0.16127,0.87611 -0.21503,1.16814c0,0 -0.08064,0.43806 -0.51869,0.35742c-0.43806,-0.08064 -0.35742,-0.51869 -0.35742,-0.51869c0.05376,-0.29204 0.10752,-0.58407 0.16127,-0.87611l0.05376,-0.29203c0,0 0.08064,-0.43806 0.51869,-0.35742z" fill="#e09512" stroke="none"/><path d="M232.47088,171.4938c0.26803,-0.35575 0.62377,-0.08772 0.62377,-0.08772l0.53031,0.39955c0,0 0.35574,0.26803 0.08772,0.62377c-0.26803,0.35575 -0.62377,0.08772 -0.62377,0.08772l-0.53031,-0.39955c0,0 -0.35574,-0.26803 -0.08772,-0.62377z" fill="#e09512" stroke="none"/><path d="M238.41383,173.39418c0.04453,-0.24193 0.27676,-0.40195 0.51869,-0.35742c0.24193,0.04453 0.40195,0.27676 0.35742,0.51869c-0.04453,0.24193 -0.27676,0.40195 -0.51869,0.35742c-0.24193,-0.04453 -0.40195,-0.27676 -0.35742,-0.51869z" fill="#e09512" stroke="none"/><path d="M253.83511,173.01104c0.12378,0.42787 -0.30409,0.55165 -0.30409,0.55165l-0.63783,0.18452c0,0 -0.42787,0.12378 -0.55165,-0.30409c-0.12378,-0.42787 0.30409,-0.55165 0.30409,-0.55165l0.63783,-0.18452c0,0 0.42787,-0.12378 0.55165,0.30409z" fill="#e09512" stroke="none"/><path d="M260.24686,172.88419c0.04453,-0.24193 0.27676,-0.40195 0.51869,-0.35742c0.24193,0.04453 0.40195,0.27676 0.35742,0.51869c-0.04453,0.24193 -0.27676,0.40195 -0.51869,0.35742c-0.24193,-0.04453 -0.40195,-0.27676 -0.35742,-0.51869z" fill="#e09512" stroke="none"/><path d="M263.93582,174.16711c0.04453,-0.24193 0.27676,-0.40195 0.51869,-0.35742c0.24193,0.04453 0.40195,0.27676 0.35742,0.51869c-0.04453,0.24193 -0.27676,0.40195 -0.51869,0.35742c-0.24193,-0.04453 -0.40195,-0.27676 -0.35742,-0.51869z" fill="#e09512" stroke="none"/><path d="M261.86978,183.75057c0.04453,-0.24193 0.27676,-0.40195 0.51869,-0.35742c0.24193,0.04453 0.40195,0.27676 0.35742,0.51869c-0.04453,0.24193 -0.27676,0.40195 -0.51869,0.35742c-0.24193,-0.04453 -0.40195,-0.27676 -0.35742,-0.51869z" fill="#e09512" stroke="none"/><path d="M271.68716,182.08552c0.43806,0.08064 0.35742,0.51869 0.35742,0.51869l-0.14956,0.49645c-0.40092,0.4487 -1.01641,0.71642 -1.60965,0.8171c0,0 -0.44108,0.06202 -0.50311,-0.37905c-0.06203,-0.44107 0.37905,-0.5031 0.37905,-0.5031c0.38625,-0.0383 0.81769,-0.19351 1.04919,-0.50506l-0.04204,-0.08762c0,0 0.08064,-0.43806 0.51869,-0.35742z" fill="#e09512" stroke="none"/><path d="M276.20427,169.02812c0.43806,0.08064 0.35742,0.51869 0.35742,0.51869l-0.10752,0.58407c0,0 -0.08064,0.43806 -0.51869,0.35742c-0.43806,-0.08064 -0.35742,-0.51869 -0.35742,-0.51869l0.10752,-0.58407c0,0 0.08064,-0.43806 0.51869,-0.35742z" fill="#e09512" stroke="none"/><path d="M269.96492,162.99709c0.26803,-0.35575 0.62377,-0.08772 0.62377,-0.08772l0.58384,0.44708c0.17392,0.24903 0.34785,0.49805 0.52178,0.74708c0,0 0.25274,0.36677 -0.11404,0.6195c-0.36677,0.25273 -0.6195,-0.11404 -0.6195,-0.11404c-0.14378,-0.21203 -0.28756,-0.42407 -0.43134,-0.6361l-0.47679,-0.35203c0,0 -0.35574,-0.26803 -0.08772,-0.62377z" fill="#e09512" stroke="none"/><path d="M256.37917,156.1698c0.08064,-0.43806 0.51869,-0.35742 0.51869,-0.35742l0.58407,0.10752c0,0 0.43806,0.08064 0.35742,0.51869c-0.08064,0.43806 -0.51869,0.35742 -0.51869,0.35742l-0.58407,-0.10752c0,0 -0.43806,-0.08064 -0.35742,-0.51869z" fill="#e09512" stroke="none"/><path d="M254.09385,160.35124c-0.15031,0.41929 -0.56959,0.26897 -0.56959,0.26897l-0.79056,-0.32361c-0.44104,-0.95972 -1.01977,-1.48475 -0.8731,-2.54311c0,0 0.08064,-0.43806 0.51869,-0.35742c0.43806,0.08064 0.35742,0.51869 0.35742,0.51869c-0.17172,0.6405 0.3785,1.09948 0.61033,1.73578l0.47785,0.1311c0,0 0.41928,0.15031 0.26897,0.5696z" fill="#e09512" stroke="none"/><path d="M258.88547,163.87754c0.04453,-0.24193 0.27676,-0.40195 0.51869,-0.35742c0.24193,0.04453 0.40195,0.27676 0.35742,0.51869c-0.04453,0.24193 -0.27676,0.40195 -0.51869,0.35742c-0.24193,-0.04453 -0.40195,-0.27676 -0.35742,-0.51869z" fill="#e09512" stroke="none"/><path d="M245.13648,159.83698c0.04453,-0.24193 0.27676,-0.40195 0.51869,-0.35742c0.24193,0.04453 0.40195,0.27676 0.35742,0.51869c-0.04453,0.24193 -0.27676,0.40195 -0.51869,0.35742c-0.24193,-0.04453 -0.40195,-0.27676 -0.35742,-0.51869z" fill="#e09512" stroke="none"/><path d="M237.38951,155.99546c0.04453,-0.24193 0.27676,-0.40195 0.51869,-0.35742c0.24193,0.04453 0.40195,0.27676 0.35742,0.51869c-0.04453,0.24193 -0.27676,0.40195 -0.51869,0.35742c-0.24193,-0.04453 -0.40195,-0.27676 -0.35742,-0.51869z" fill="#e09512" stroke="none"/><path d="M241.39956,144.05246c0.04453,-0.24193 0.27676,-0.40195 0.51869,-0.35742c0.24193,0.04453 0.40195,0.27676 0.35742,0.51869c-0.04453,0.24193 -0.27676,0.40195 -0.51869,0.35742c-0.24193,-0.04453 -0.40195,-0.27676 -0.35742,-0.51869z" fill="#e09512" stroke="none"/><path d="M250.71423,147.57869c0.04453,-0.24193 0.27676,-0.40195 0.51869,-0.35742c0.24193,0.04453 0.40195,0.27676 0.35742,0.51869c-0.04453,0.24193 -0.27676,0.40195 -0.51869,0.35742c-0.24193,-0.04453 -0.40195,-0.27676 -0.35742,-0.51869z" fill="#e09512" stroke="none"/><path d="M249.48506,150.97562c0.04453,-0.24193 0.27676,-0.40195 0.51869,-0.35742c0.24193,0.04453 0.40195,0.27676 0.35742,0.51869c-0.04453,0.24193 -0.27676,0.40195 -0.51869,0.35742c-0.24193,-0.04453 -0.40195,-0.27676 -0.35742,-0.51869z" fill="#e09512" stroke="none"/><path d="M264.57799,147.71525c0.04453,-0.24193 0.27676,-0.40195 0.51869,-0.35742c0.24193,0.04453 0.40195,0.27676 0.35742,0.51869c-0.04453,0.24193 -0.27676,0.40195 -0.51869,0.35742c-0.24193,-0.04453 -0.40195,-0.27676 -0.35742,-0.51869z" fill="#e09512" stroke="none"/><path d="M271.26433,150.75766c0.04453,-0.24193 0.27676,-0.40195 0.51869,-0.35742c0.24193,0.04453 0.40195,0.27676 0.35742,0.51869c-0.04453,0.24193 -0.27676,0.40195 -0.51869,0.35742c-0.24193,-0.04453 -0.40195,-0.27676 -0.35742,-0.51869z" fill="#e09512" stroke="none"/><path d="M271.8179,152.67116c0.04453,-0.24193 0.27676,-0.40195 0.51869,-0.35742c0.24193,0.04453 0.40195,0.27676 0.35742,0.51869c-0.04453,0.24193 -0.27676,0.40195 -0.51869,0.35742c-0.24193,-0.04453 -0.40195,-0.27676 -0.35742,-0.51869z" fill="#e09512" stroke="none"/><path d="M262.81124,154.03255c0.04453,-0.24193 0.27676,-0.40195 0.51869,-0.35742c0.24193,0.04453 0.40195,0.27676 0.35742,0.51869c-0.04453,0.24193 -0.27676,0.40195 -0.51869,0.35742c-0.24193,-0.04453 -0.40195,-0.27676 -0.35742,-0.51869z" fill="#e09512" stroke="none"/><path d="M261.31329,158.88966c0.04453,-0.24193 0.27676,-0.40195 0.51869,-0.35742c0.24193,0.04453 0.40195,0.27676 0.35742,0.51869c-0.04453,0.24193 -0.27676,0.40195 -0.51869,0.35742c-0.24193,-0.04453 -0.40195,-0.27676 -0.35742,-0.51869z" fill="#e09512" stroke="none"/><path d="M266.26193,154.96968c0.04453,-0.24193 0.27676,-0.40195 0.51869,-0.35742c0.24193,0.04453 0.40195,0.27676 0.35742,0.51869c-0.04453,0.24193 -0.27676,0.40195 -0.51869,0.35742c-0.24193,-0.04453 -0.40195,-0.27676 -0.35742,-0.51869z" fill="#e09512" stroke="none"/><path d="M270.21438,156.20172c-0.26803,0.35575 -0.62377,0.08772 -0.62377,0.08772l-0.53032,-0.39955c0,0 -0.35574,-0.26803 -0.08772,-0.62377c0.26803,-0.35575 0.62378,-0.08772 0.62378,-0.08772l0.53031,0.39955c0,0 0.35574,0.26803 0.08772,0.62377z" fill="#e09512" stroke="none"/><path d="M277.39857,163.36028c0.04453,-0.24193 0.27676,-0.40195 0.51869,-0.35742c0.24193,0.04453 0.40195,0.27676 0.35742,0.51869c-0.04453,0.24193 -0.27676,0.40195 -0.51869,0.35742c-0.24193,-0.04453 -0.40195,-0.27676 -0.35742,-0.51869z" fill="#e09512" stroke="none"/><path d="M233.51315,191.81576c0.08064,-0.43806 0.51869,-0.35742 0.51869,-0.35742l0.58407,0.10752c0,0 0.43806,0.08064 0.35742,0.51869c-0.08064,0.43806 -0.51869,0.35742 -0.51869,0.35742l-0.58407,-0.10752c0,0 -0.43806,-0.08064 -0.35742,-0.51869z" fill="#e09512" stroke="none"/><path d="M229.9375,175.15512c0.04453,-0.24193 0.27676,-0.40195 0.51869,-0.35742c0.24193,0.04453 0.40195,0.27676 0.35742,0.51869c-0.04453,0.24193 -0.27676,0.40195 -0.51869,0.35742c-0.24193,-0.04453 -0.40195,-0.27676 -0.35742,-0.51869z" fill="#e09512" stroke="none"/><path d="M225.64993,180.40453c0.04453,-0.24193 0.27676,-0.40195 0.51869,-0.35742c0.24193,0.04453 0.40195,0.27676 0.35742,0.51869c-0.04453,0.24193 -0.27676,0.40195 -0.51869,0.35742c-0.24193,-0.04453 -0.40195,-0.27676 -0.35742,-0.51869z" fill="#e09512" stroke="none"/></g></g></g></svg>