<svg version="1.1" xmlns="http://www.w3.org/2000/svg" xmlns:xlink="http://www.w3.org/1999/xlink" width="403.29759" height="218.00877" viewBox="0,0,403.29759,218.00877"><g transform="translate(-69.10003,-83.399)"><g data-paper-data="{&quot;isPaintingLayer&quot;:true}" fill="#f0ff25" fill-rule="nonzero" stroke="none" stroke-width="0.5" stroke-linecap="butt" stroke-linejoin="miter" stroke-miterlimit="10" stroke-dasharray="" stroke-dashoffset="0" style="mix-blend-mode: normal"><path d="M468.10001,286.84999c0,2.5 -2.5,2.5 -2.5,2.5h-3c-1.89404,-0.02352 -3.73002,0.66304 -5.59954,0.96772c-0.88073,0.14353 -1.83093,-0.36159 -2.676,-0.07499c-1.13817,0.38601 -1.85712,1.62814 -3,2c-1.08411,0.35273 -2.29103,-0.07696 -3.419,0.08854c-1.35981,0.19952 -2.6388,0.81018 -4,1c-2.41182,0.33632 -4.8703,0.01873 -7.30546,0.01873c-6.66667,0 -13.33333,0 -20,0c-5.66757,0 -11.33519,0.00665 -17.00275,0c-1.52229,-0.00179 -8.77525,0.02447 -9.86036,-0.19468c-1.62296,-0.32778 -2.99305,-1.49263 -4.60966,-1.85043c-2.64703,-0.58585 -5.44555,0.31189 -8.13313,-0.04434c-4.89801,-0.64921 -9.63564,-2.50974 -14.6003,-2.91907c-12.03294,-0.99211 -24.6076,-0.05031 -36.6932,0.03663c-7.52542,1.7715 -15.19699,3.33232 -22.8944,3.96337c-3.28921,0.26966 -6.62131,-0.38033 -9.90074,-0.01021c-3.68669,0.41608 -7.31636,1.54817 -11,2c-5.89589,0.72318 -12.37221,0.01873 -18.30546,0.01873c-10.66667,0 -21.33333,0 -32,0c-2.5332,0 -5.09287,-0.39794 -7.59954,-0.03228c-4.02674,0.58739 -8.01273,2.21068 -12,3c-2.41988,0.47904 -4.93361,0.03228 -7.40046,0.03228c-4,0 -8,0 -12,0c-14,0 -28,0 -42,0c-8.12366,0 -16.77255,-0.87761 -24.84486,0.00666c-2.65041,0.29034 -5.11483,1.58667 -7.75469,1.96106c-3.2556,0.46171 -7.0866,0.03228 -10.40046,0.03228c-5.66667,0 -11.33333,0 -17,0c-3.96719,0 -7.47034,-0.42341 -11.20943,0.87171c0,0 -0.50976,0.16992 -1.13539,0.11588c-1.70312,1.48241 -3.87238,0.95559 -6.65516,1.06242c0,0 -2.5,0 -2.5,-2.5c0,-1.08042 0.46693,-1.69392 0.9972,-2.04228c-0.04041,-7.80798 -0.48227,-15.68753 1.03193,-23.35091l0.01942,-0.0971c0,0 0.44761,-2.23809 2.62593,-2.00962c0.0026,-2.01367 0.09246,-3.99838 0.35779,-5.90055c0.14562,-1.04398 0.86685,-1.95435 1,-3c0.04568,-0.3587 0.07976,-0.71892 0.10421,-1.08042c-0.31744,-0.0602 -0.65976,-0.19666 -1.02323,-0.43899c-2.08012,-1.38675 -0.69338,-3.46688 -0.69338,-3.46688c0.49439,-0.68493 1.2508,-1.24973 1.57831,-2.01117c-0.11616,-1.89079 -0.20835,-3.77941 -0.01105,-5.63163c-0.04127,-3.98863 0.01286,-7.9824 0.01286,-11.97045c0,-9.33334 0,-18.66666 0,-28c0,-7.26486 0.34227,-14.48714 -0.69279,-21.68265c-0.51227,-7.08646 -0.30721,-14.21351 -0.30721,-21.31735c0,-5.76555 -0.21957,-11.81962 1.04492,-17.47178c1.38071,-6.17165 3.75341,-11.7047 6.14538,-17.48493c0.94678,-2.2879 1.45775,-4.7529 1.81481,-7.20308c0.22424,-1.53875 -0.4467,-3.58809 0.72712,-4.60798c1.3546,-1.17695 3.57658,-0.98614 5.34215,-0.66536c5.22783,0.94982 7.47927,5.99442 10.57771,9.60243c0.89407,1.04403 1.8846,2.01262 2.6822,3.13207c0.24738,0.34721 -0.01227,1.25222 0.41204,1.21079c0.57157,-0.0558 0.70411,-0.90753 1.06419,-1.35492c0.84907,-1.05491 1.98946,-1.92521 2.56319,-3.15184c1.13693,-2.43076 0.81133,-5.34776 1.77419,-7.85257c0.59586,-1.55008 1.5925,-2.9216 2.22998,-4.45504c0.62651,-1.50706 0.18331,-3.75538 1.55251,-4.64366c5.85045,-3.79551 6.44127,1.23426 8.44379,4.29135c0.29453,0.44964 0.58829,1.15451 1.1258,1.15451c0.53751,0 0.84656,-0.69522 1.1258,-1.15451c1.42293,-2.34041 1.16091,-5.52758 2.79149,-7.72836c1.23784,-1.6707 3.12821,-2.78076 4.92244,-3.83158c2.80949,-1.6454 7.31668,-1.71662 10.46572,-1.26682c1.49302,0.21326 2.99447,0.51769 4.39351,1.08097c0.51323,0.20664 0.86332,1.6158 1.18299,1.16423c0.63829,-0.90165 0.21831,-2.19861 0.32747,-3.29792c1.07596,-3.22339 2.23097,-11.82562 5.47625,-13.59265c6.81256,-3.70937 6.83247,1.11016 9.34243,4.66486c0.5142,0.72822 1.34803,1.18095 1.90525,1.8768c0.65772,0.82135 1.32278,1.66219 1.80564,2.59591c0.36218,-2.75263 2.33795,-7.23817 3.93372,-8.1295c1.37958,-0.77058 3.15562,-0.50873 4.72774,-0.34915c0.75417,0.07655 1.30004,1.25557 2.02516,1.03459c2.31295,-0.70486 2.28925,-4.58217 4.39473,-5.77107c0.64187,-0.36244 7.37435,-0.38805 8.13636,-0.10551c0.77435,0.28712 1.07845,1.25105 1.61767,1.87658l1.63505,-0.93859c0,0 2.37171,-0.79057 3.16228,1.58114l0.00003,0.00002c0.12781,0.38342 0.17297,0.72551 0.15886,1.02962c1.35985,-0.2121 2.71178,-0.53789 4.06896,-0.75678c6.13372,-0.98926 13.20892,-0.03228 19.40046,-0.03228c13.37685,0 26.56414,-0.55237 39.24634,4.01217c2.33985,-0.32564 4.79547,-0.13587 7.0292,-0.9049c1.45755,-0.5018 2.66291,-1.63469 4.15008,-2.04039c0.33658,-0.09182 7.497,-0.06688 7.57438,-0.06688c5.62296,0 11.38764,-0.34803 17,0c1.52018,0.09427 3.3595,-0.43474 4.53853,0.52949c0.70199,0.5741 0.49041,1.70842 0.54405,2.69326c0.49644,-0.17274 0.91741,-0.17274 0.91741,-0.17274c3.53712,0.06314 5.87293,-1.54339 9.05741,-2.81549c1.90519,-0.76107 4.01283,-1.00561 5.84421,-1.9303c2.77091,-1.39908 3.53614,-3.30466 7.09838,-3.25421c1.50907,0.02138 2.98391,0.66082 4.31433,1.37337c0.71969,0.38545 0.89548,1.4873 1.64238,1.81693c1.82972,0.80753 4.2065,-0.88508 6,0c3.12382,1.54157 4.42518,7.6371 8.48441,6.8333c0.91004,-0.18021 1.46282,-1.14553 2.24218,-1.64877c0.40575,-0.26199 7.0735,-4.44644 8.18684,-4.37146c2.26752,0.15271 4.24664,1.62049 6.36996,2.43073c0.32172,0.6252 0.34057,1.55272 0.96517,1.87561c0.62782,0.32455 1.39987,-0.3861 2.1002,-0.29099c1.62624,0.22087 3.29075,0.51097 4.76897,1.22393c1.55136,0.74823 2.65113,2.23008 4.15038,3.07793c1.22044,0.69017 7.54716,2.84604 8.8111,3.22095c2.5,0.74156 5.71433,-0.46142 7.73185,1.1907c0.5872,0.48085 0.14506,7.04839 2.18894,7.45807c1.23172,0.24689 2.57174,-0.46728 3.76775,-0.08303c1.50828,0.48458 2.84352,1.48705 3.99358,2.57659c1.31207,1.24304 2.23328,2.84408 3.28196,4.31614c0.75253,1.05634 0.97754,2.64633 2.11803,3.26393c1.96422,1.06367 5.11772,-1.29315 6.88197,-1.26393c5.44442,0.09018 9.6212,5.14366 15,5c1.19146,0.02229 2.42781,-0.25783 3.57439,0.06687c4.28268,1.21283 6.4899,4.12338 9.88739,6.40502c2.57936,1.73221 5.89932,2.10999 8.52222,3.77554c3.34825,2.12615 4.50392,4.65694 6.90464,7.61456c0.75891,0.93496 1.98023,1.56069 2.42106,2.6813c1.32232,3.36129 -0.71559,4.13823 0.12343,7.38233c0.95718,3.70094 3.53199,7.19815 4.03459,11.17393c0.95,7.51485 0.03228,15.81172 0.03228,23.40045c-0.03575,1.42518 -0.43858,2.88894 -0.10727,4.27554c0.5586,2.3379 3.21177,3.72922 4,6c0.32792,0.9447 -0.30142,2.04651 0,3c1.15589,3.65641 5.35508,6.44803 6.56244,10.25509c1.699,5.3573 0.57227,12.86043 0.54483,18.46937c-0.00927,1.89416 0.73669,3.7195 0.96772,5.59955c0.36057,2.93427 0.51264,8.6781 0,11.80091c-0.97027,5.91055 -4.05095,11.37294 -6,17c0.01076,0.86651 0.188,1.74707 0.03228,2.59954c-0.08586,0.47001 -1.15759,1.01462 -0.73223,1.23223c0.83746,0.42843 2.28668,-0.9424 2.81721,-0.16559c1.37241,2.00954 1.87901,4.61906 1.88623,7.05251c0.00522,1.75755 -1.4997,3.21506 -1.85065,4.93722c-0.04361,0.21402 -0.11166,7.14847 -0.12071,7.97118l-0.70219,1.11089c0.39714,0.36973 0.70235,0.93804 0.70235,1.81156zM75.10002,292.89999c-0.01366,-0.48789 -0.04224,-0.96173 -0.0814,-1.42568c0.02683,1.63444 0.05993,3.26672 0.07424,4.89189c0.56259,-0.63535 0.03632,-2.42505 0.00715,-3.46621z"/></g></g></svg>